<svg xmlns="http://www.w3.org/2000/svg" width="115.059" height="101.492" viewBox="0 0 115.059 101.492">
  <g id="Group_891" data-name="Group 891" transform="translate(2 2)">
    <g id="Group_889" data-name="Group 889" transform="translate(0 38.902)">
      <path id="Path_1092" data-name="Path 1092" d="M2161.3,1165.484h-21.728L2127.5,1184.8v14.442h33.8" transform="translate(-2127.5 -1151)" fill="#ffd401" stroke="#333" stroke-linejoin="round" stroke-width="4"/>
      <path id="Path_1094" data-name="Path 1094" d="M2128.571,1164.984v36.32H2116.5" transform="translate(-2041.658 -1152.913)" fill="none" stroke="#fff" stroke-linejoin="round" stroke-width="4"/>
      <ellipse id="Ellipse_276" data-name="Ellipse 276" cx="7.243" cy="7.243" rx="7.243" ry="7.243" transform="translate(12.071 44.105)" fill="#333" stroke="#fff" stroke-linejoin="round" stroke-width="4"/>
      <ellipse id="Ellipse_277" data-name="Ellipse 277" cx="7.243" cy="7.243" rx="7.243" ry="7.243" transform="translate(60.356 44.105)" fill="#333" stroke="#fff" stroke-linejoin="round" stroke-width="4"/>
      <line id="Line_139" data-name="Line 139" x1="14.486" y2="0.024" transform="translate(96.57 24.143)" fill="none" stroke="#fff" stroke-linecap="round" stroke-linejoin="round" stroke-width="4"/>
      <line id="Line_140" data-name="Line 140" x1="7.243" y2="0.024" transform="translate(96.57 33.8)" fill="none" stroke="#fff" stroke-linecap="round" stroke-linejoin="round" stroke-width="4"/>
      <line id="Line_141" data-name="Line 141" x1="2.414" y2="0.024" transform="translate(96.57 43.457)" fill="none" stroke="#fff" stroke-linecap="round" stroke-linejoin="round" stroke-width="4"/>
      <line id="Line_142" data-name="Line 142" x1="32.291" transform="translate(1.508 33.8)" fill="none" stroke="#333" stroke-linejoin="round" stroke-width="4"/>
      <line id="Line_143" data-name="Line 143" x1="0.151" y1="0.155" transform="translate(33.95 48.686)" fill="none" stroke="#fff" stroke-linejoin="round" stroke-width="4"/>
      <line id="Line_144" data-name="Line 144" x1="7.998" transform="translate(25.75 48.286)" fill="none" stroke="#fff" stroke-linejoin="round" stroke-width="4"/>
      <path id="Path_1093" data-name="Path 1093" d="M2148.557,1210.876l-26.557-.031v-48.361h26.557" transform="translate(-2088.2 -1162.484)" fill="none" stroke="#fff" stroke-linejoin="round" stroke-width="4"/>
    </g>
    <g id="Group_890" data-name="Group 890" transform="translate(64.513 0)">
      <circle id="Ellipse_279" data-name="Ellipse 279" cx="22.059" cy="22.059" r="22.059" transform="translate(0 0)" fill="#ffd401" stroke="#333" stroke-linecap="round" stroke-linejoin="round" stroke-width="4"/>
      <path id="Path_1096" data-name="Path 1096" d="M411.446,585.5l-14.584,13.612L392,594.251" transform="translate(-379.664 -570.247)" fill="none" stroke="#333" stroke-linecap="round" stroke-linejoin="round" stroke-width="4"/>
    </g>
  </g>
</svg>
