<svg xmlns="http://www.w3.org/2000/svg" width="16.611" height="16.009" viewBox="0 0 16.611 16.009">
  <g id="Group_322" data-name="Group 322" transform="translate(0 -1.515)">
    <path id="Path_400" data-name="Path 400" d="M-491.308,3686.741c.26-.02.467-.047.675-.048,1.147,0,2.295,0,3.442,0,.822,0,1.281-.254,1.443-.784a1.585,1.585,0,0,0-.635-1.875,5.949,5.949,0,0,0,.671-1.415,1.091,1.091,0,0,0-.827-1.182,3.542,3.542,0,0,0,.491-1.293c-.02-.4-.4-.779-.662-1.227a2.582,2.582,0,0,0,.265-.737c.076-.808-.243-1.145-1.048-1.147-2.789-.008-5.579,0-8.368,0-.366,0-.7.045-.7.511.007,2.195-.052,4.394.061,6.583a7.809,7.809,0,0,0,2.334,4.807,3.019,3.019,0,0,0,.364.39,2.611,2.611,0,0,1,1.045,2.59.883.883,0,0,0,.628,1.074,1.138,1.138,0,0,0,1.344-.508,3.657,3.657,0,0,0,.449-3.012C-490.577,3688.571-490.952,3687.718-491.308,3686.741Z" transform="translate(502.273 -3675.509)" fill="#888"/>
    <path id="Path_401" data-name="Path 401" d="M-544.586,3751.678c0,1.266.014,2.531-.007,3.8-.009.537.2.744.738.729,1.008-.027,2.017-.022,3.025,0,.472.01.677-.142.672-.645-.025-2.393-.023-4.785-.032-7.178,0-.1-.007-.2-.017-.3-.083-.808-.083-.808-.877-.808-.949,0-1.9.016-2.848-.006-.493-.011-.666.2-.66.672C-544.576,3749.186-544.586,3750.432-544.586,3751.678Z" transform="translate(544.593 -3745.346)" fill="#888"/>
  </g>
</svg>
