<svg xmlns="http://www.w3.org/2000/svg" width="25.933" height="21.711" viewBox="0 0 25.933 21.711">
  <g id="Group_3137" data-name="Group 3137" transform="translate(-3432.909 -1579.992)">
    <path id="Path_1866" data-name="Path 1866" d="M3436.087,1598.522c-.677,0-1.311,0-1.945,0a1.138,1.138,0,0,1-1.233-1.234q0-8.029,0-16.058a1.143,1.143,0,0,1,1.235-1.236q10.15,0,20.3,0a1.134,1.134,0,0,1,1.218,1.223c0,.642,0,1.283,0,1.947.1.005.187.013.269.013.592,0,1.184-.005,1.775,0a1.115,1.115,0,0,1,1.133,1.148q0,8.106,0,16.213a1.137,1.137,0,0,1-1.233,1.161q-2.406.005-4.811,0-7.616,0-15.231,0a3.054,3.054,0,0,1-.537-.03,1.092,1.092,0,0,1-.939-1.116c-.006-.575,0-1.149,0-1.724Zm20.622,1.054v-14.269H3438.22v14.269Zm-21.67-17.453v14.266h1.048v-.224q0-2.123,0-4.246,0-3.783,0-7.566a1.105,1.105,0,0,1,.9-1.149,2.563,2.563,0,0,1,.512-.027h16.027v-1.054Z" fill="#787579"/>
    <path id="Path_1867" data-name="Path 1867" d="M3573.292,1771.056h-16.364c.05-.085.081-.148.121-.205q1.97-2.841,3.943-5.681.453-.652.942-.015c.474.62.944,1.242,1.418,1.861.321.421.621.418.944-.006l3.44-4.523c.4-.527.655-.529,1.049-.007q2.176,2.884,4.345,5.772a.847.847,0,0,1,.155.462C3573.3,1769.484,3573.292,1770.255,3573.292,1771.056Z" transform="translate(-117.639 -172.729)" fill="#787579"/>
    <path id="Path_1868" data-name="Path 1868" d="M3589.814,1707.889a1.854,1.854,0,1,1-1.859,1.837A1.849,1.849,0,0,1,3589.814,1707.889Z" transform="translate(-147.07 -121.317)" fill="#787579"/>
  </g>
</svg>
