<svg xmlns="http://www.w3.org/2000/svg" width="22.533" height="23.63" viewBox="0 0 22.533 23.63">
  <g id="Group_3144" data-name="Group 3144" transform="translate(-3877.798 -2147.035)">
    <path id="Path_1881" data-name="Path 1881" d="M4041.778,2162.873c-.615-.768-1.226-1.5-1.8-2.257-.5-.663-.977-1.346-1.435-2.041a21.426,21.426,0,0,1-1.708-2.9,9.682,9.682,0,0,1-.774-2.365,4.871,4.871,0,0,1,1.116-4.114,5.77,5.77,0,0,1,5.246-2.123,5.665,5.665,0,0,1,4.533,2.894,4.9,4.9,0,0,1,.475,3.857,12.968,12.968,0,0,1-1.605,3.561,39.31,39.31,0,0,1-3.876,5.3Zm.017-13.471a3.431,3.431,0,1,0,3.442,3.433A3.436,3.436,0,0,0,4041.8,2149.4Z" transform="translate(-152.736)"/>
    <path id="Path_1882" data-name="Path 1882" d="M3937.756,2543.366c.332-.372.659-.71.955-1.073.616-.756,1.218-1.522,1.819-2.29a.3.3,0,0,1,.271-.132c1.514,0,3.029,0,4.544,0a1.588,1.588,0,0,1,1.574,1.176c.119.4.237.8.363,1.225-.318.074-.622.146-.926.216q-2.918.662-5.837,1.323c-1.286.29-2.573.573-3.859.865q-2.38.541-4.758,1.093a.245.245,0,0,1-.258-.07q-1.668-1.617-3.343-3.226a.193.193,0,0,1-.056-.227c.129-.416.244-.837.375-1.252a1.577,1.577,0,0,1,1.527-1.121c1.532,0,3.064,0,4.6,0a.276.276,0,0,1,.25.138,35.3,35.3,0,0,0,2.69,3.265C3937.7,2543.294,3937.719,2543.318,3937.756,2543.366Z" transform="translate(-48.696 -379.309)"/>
    <path id="Path_1883" data-name="Path 1883" d="M4056.672,2684.081c.348-.08.675-.156,1-.23.861-.193,1.722-.382,2.582-.577.721-.163,1.44-.333,2.161-.5.821-.188,1.642-.373,2.462-.562a.25.25,0,0,1,.273.074q2.39,2.489,4.787,4.971c.034.035.063.075.113.135-.087,0-.147.009-.207.009q-4.794,0-9.588,0a.4.4,0,0,1-.258-.093q-1.623-1.552-3.234-3.116C4056.738,2684.163,4056.715,2684.131,4056.672,2684.081Z" transform="translate(-172.715 -516.738)"/>
    <path id="Path_1884" data-name="Path 1884" d="M3879.187,2644.939l6.7,6.468c-.084.008-.131.016-.177.016q-3.157,0-6.315,0a1.586,1.586,0,0,1-1.528-2.052c.245-.834.5-1.665.753-2.5.17-.571.331-1.144.5-1.716C3879.136,2645.091,3879.158,2645.027,3879.187,2644.939Z" transform="translate(0 -480.759)"/>
    <path id="Path_1885" data-name="Path 1885" d="M4339.389,2638.37c.074.246.143.475.211.7q.275.921.548,1.843c.209.7.42,1.4.625,2.107a1.593,1.593,0,0,1-1.287,2.039.278.278,0,0,1-.28-.071q-2.55-2.655-5.106-5.3c-.023-.024-.042-.051-.083-.1Z" transform="translate(-440.509 -474.416)"/>
  </g>
</svg>
