<svg xmlns="http://www.w3.org/2000/svg" width="25.502" height="26.859" viewBox="0 0 25.502 26.859">
  <g id="Group_3148" data-name="Group 3148" transform="translate(-1367.257 -3205.312)">
    <path id="Path_1886" data-name="Path 1886" d="M1599.45,3368.692v-10.8h-16.467v4.764a7.681,7.681,0,0,0-2,.094c-.005-.082-.013-.15-.013-.217q0-3.718,0-7.436a2.239,2.239,0,0,1,2.184-2.21c.218,0,.437,0,.655,0a.34.34,0,0,1,.081.025c0,.073.01.149.011.225,0,.32,0,.639,0,.959a1.764,1.764,0,0,0,3.5.282,3.968,3.968,0,0,0,.024-.629c0-.279,0-.557,0-.85h7.557c.006.066.015.126.015.185,0,.343,0,.686,0,1.029a1.766,1.766,0,0,0,3.473.432,2.526,2.526,0,0,0,.066-.554c.01-.357,0-.715,0-1.07a2.34,2.34,0,0,1,2.88,1.777,2.236,2.236,0,0,1,.04.464q0,6.617.005,13.235a2.257,2.257,0,0,1-1.8,2.228,3.284,3.284,0,0,1-.627.05q-4.607,0-9.213,0h-.242a7.91,7.91,0,0,0-.067-1.987Z" transform="translate(-208.718 -144.114)" fill="#787579"/>
    <path id="Path_1887" data-name="Path 1887" d="M1379.987,3815.589a6.365,6.365,0,1,1-6.446-6.354A6.386,6.386,0,0,1,1379.987,3815.589Zm-5.673-.094v-.29q0-1.636,0-3.272a1.12,1.12,0,0,0-.029-.3.686.686,0,0,0-.746-.469.653.653,0,0,0-.6.66q-.007,2.2,0,4.394a.63.63,0,0,0,.584.646,1.866,1.866,0,0,0,.256.014h2.734a1.869,1.869,0,0,0,.256-.014.684.684,0,0,0,.119-1.328,1.109,1.109,0,0,0-.322-.04c-.654,0-1.309,0-1.963,0Z" transform="translate(0 -589.799)" fill="#787579"/>
    <path id="Path_1888" data-name="Path 1888" d="M1735.032,3208.335c0-.593-.006-1.185,0-1.777a1.086,1.086,0,0,1,2.145-.24,1.67,1.67,0,0,1,.031.325q0,1.707,0,3.414a1.1,1.1,0,0,1-.741,1.1,1.086,1.086,0,0,1-1.436-1.025C1735.022,3209.535,1735.031,3208.935,1735.032,3208.335Z" transform="translate(-359.17 -0.151)" fill="#787579"/>
    <path id="Path_1889" data-name="Path 1889" d="M2210.623,3208.19c0-.6,0-1.2,0-1.8a1.08,1.08,0,0,1,2.16,0c0,1.2,0,2.4,0,3.6a1.081,1.081,0,0,1-2.125.276,1.28,1.28,0,0,1-.035-.323C2210.622,3209.359,2210.623,3208.775,2210.623,3208.19Z" transform="translate(-823.642)" fill="#787579"/>
    <path id="Path_1890" data-name="Path 1890" d="M1955.082,3633.105h-3.1c-.049-.18-.055-2.9-.005-3.121h3.105Z" transform="translate(-571.012 -414.74)" fill="#787579"/>
    <path id="Path_1891" data-name="Path 1891" d="M1744.889,3630v3.121h-3.116V3630Z" transform="translate(-365.757 -414.755)" fill="#787579"/>
    <path id="Path_1892" data-name="Path 1892" d="M2163.465,3629.953h3.089c.051.165.063,2.861.012,3.123h-3.1Z" transform="translate(-777.588 -414.71)" fill="#787579"/>
    <path id="Path_1893" data-name="Path 1893" d="M1952.623,3834.775v-3.121h3.124v3.121Z" transform="translate(-571.677 -611.695)" fill="#787579"/>
    <path id="Path_1894" data-name="Path 1894" d="M2163.467,3831.591h3.116v3.121h-3.116Z" transform="translate(-777.59 -611.633)" fill="#787579"/>
  </g>
</svg>
