<?xml version="1.0" encoding="utf-8"?>
<!-- Generator: Adobe Illustrator 19.0.0, SVG Export Plug-In . SVG Version: 6.00 Build 0)  -->
<svg version="1.1" id="Layer_1" xmlns="http://www.w3.org/2000/svg" xmlns:xlink="http://www.w3.org/1999/xlink" x="0px" y="0px"
	 width="300px" height="300px" viewBox="-155 247 300 300" style="enable-background:new -155 247 300 300;" xml:space="preserve">
<style type="text/css">
	.st0{fill:#ffce31;}
</style>
<g id="Group_3144" transform="translate(-3877.798 -2147.035)">
	<path id="Path_1881" class="st0" d="M3872.5424805,2588.7192383c-6.8222656-8.5202637-13.6010742-16.6396484-19.9680176-25.0380859
		c-5.5466309-7.3554688-10.838623-14.9306641-15.9191895-22.6411133
		c-7.1499023-10.2102051-13.4846191-20.9645996-18.9472656-32.1687012
		c-3.9782715-8.3388672-6.8625488-17.1569824-8.5852051-26.2351074
		c-3.1008301-16.3063965,1.4626465-33.1328125,12.3796387-45.6369629
		c13.9528809-17.479248,36.0144043-26.4055176,58.1953125-23.5510254
		c21.0974121,1.5544434,39.9956055,13.6225586,50.2844238,32.1037598
		c7.5776367,12.9265137,9.4841309,28.4069824,5.2702637,42.7851563
		c-3.9055176,13.9909668-9.909668,27.3103027-17.8041992,39.5029297
		c-12.6665039,20.7614746-27.050293,40.4289551-42.996582,58.7937012L3872.5424805,2588.7192383z M3872.7319336,2439.2851563
		c-21.0187988,0.067627-38.005127,17.1621094-37.9399414,38.1811523
		c0.067627,21.0187988,17.1621094,38.005127,38.1811523,37.9399414
		c20.9645996-0.067627,37.9265137-17.0727539,37.9399414-38.0375977
		c-0.0053711-21.0512695-17.0727539-38.1132813-38.1242676-38.1079102h-0.0026855L3872.7319336,2439.2851563z"/>
	<path id="Path_1882" class="st0" d="M3872.7424316,2601.8525391c3.6831055-4.1274414,7.3095703-7.8757324,10.5947266-11.902832
		c6.8327637-8.3874512,13.5114746-16.8833008,20.1791992-25.4035645c0.6662598-0.9938965,1.8144531-1.5517578,3.0061035-1.4650879
		c16.7939453,0,33.6015625,0,50.40625,0c8.1357422-0.2058105,15.3505859,5.1862793,17.4602051,13.0456543
		c1.3190918,4.4362793,2.6298828,8.875,4.0273438,13.5900879c-3.5288086,0.8205566-6.9006348,1.6196289-10.2724609,2.3967285
		c-21.5795898,4.8967285-43.1643066,9.7878418-64.7492676,14.6762695
		c-14.2644043,3.2172852-28.5424805,6.3562012-42.8068848,9.5952148c-17.5983887,4.0029297-35.1967773,8.0437012-52.7814941,12.125
		c-1.0236816,0.3303223-2.1477051,0.0244141-2.8625488-0.7773438
		c-12.3361816-11.9567871-24.6967773-23.8867188-37.0844727-35.7868652c-0.75-0.6040039-1.0046387-1.6359863-0.6201172-2.5187988
		c1.4299316-4.6147461,2.7055664-9.2839355,4.1599121-13.8879395c2.2504883-7.453125,9.1540527-12.5229492,16.9401855-12.4362793
		c16.9943848,0,33.9887695,0,51.0292969,0c1.1374512-0.0461426,2.2043457,0.5441895,2.7731934,1.5300293
		c9.213623,12.6584473,19.1772461,24.7536621,29.8395996,36.2177734
		C3872.1193848,2601.0537109,3872.3305664,2601.3217773,3872.7424316,2601.8525391z"/>
	<path id="Path_1883" class="st0" d="M3816.1345215,2638.3054199c3.859375-0.8881836,7.4885254-1.7304688,11.0932617-2.5510254
		c9.552002-2.142334,19.1013184-4.2385254,28.6425781-6.3996582c7.9975586-1.809082,15.9733887-3.6940918,23.9709473-5.5466309
		c9.1079102-2.0852051,18.2155762-4.1381836,27.3100586-6.234375c1.0805664-0.3791504,2.2858887-0.0515137,3.027832,0.8205566
		c17.6740723,18.4082031,35.3754883,36.7890625,53.1037598,55.1430664c0.3764648,0.387207,0.6987305,0.831543,1.2539063,1.4978027
		c-0.9641113,0-1.6303711,0.1000977-2.2966309,0.1000977c-35.4511719,0-70.9050293,0-106.3591309,0
		c-1.0454102,0.0053711-2.0610352-0.3601074-2.8625488-1.0319824
		c-12.0031738-11.4775391-23.9599609-23.0012207-35.8737793-34.5654297
		C3816.8659668,2639.2155762,3816.6113281,2638.8605957,3816.1345215,2638.3054199z"/>
	<path id="Path_1884" class="st0" d="M3763.2194824,2603.2167969l74.322998,71.7502441
		c-0.9316406,0.0893555-1.4543457,0.1787109-1.963623,0.1787109c-23.3452148,0-46.6984863,0-70.052002,0
		c-9.7172852,0.072998-17.6523438-7.7429199-17.7282715-17.4602051c-0.0134277-1.7956543,0.2492676-3.5856934,0.7773438-5.3027344
		c2.7189941-9.2514648,5.5463867-18.470459,8.3522949-27.732666c1.8850098-6.3347168,3.6723633-12.690918,5.5463867-19.036377
		C3762.6533203,2604.9040527,3762.8972168,2604.1945801,3763.2194824,2603.2167969z"/>
	<path id="Path_1885" class="st0" d="M3981.6767578,2600.7116699c0.8232422,2.7299805,1.5871582,5.2702637,2.3400879,7.7646484
		c2.0310059,6.8085938,4.0622559,13.6252441,6.0771484,20.4448242c2.3183594,7.7644043,4.6582031,15.5290527,6.9333496,23.3723145
		c2.8435059,9.3381348-2.4267578,19.2097168-11.7592773,22.0505371c-0.8234863,0.2492676-1.668457,0.4416504-2.5187988,0.5688477
		c-1.0996094,0.3356934-2.2966309,0.0324707-3.1037598-0.7880859
		c-18.8549805-19.6350098-37.7368164-39.2319336-56.640625-58.7937012c-0.2546387-0.265625-0.4658203-0.5661621-0.9208984-1.1105957
		L3981.6767578,2600.7116699z"/>
</g>
</svg>
