<?xml version="1.0" encoding="utf-8"?>
<!-- Generator: Adobe Illustrator 19.0.0, SVG Export Plug-In . SVG Version: 6.00 Build 0)  -->
<svg version="1.1" id="Layer_1" xmlns="http://www.w3.org/2000/svg" xmlns:xlink="http://www.w3.org/1999/xlink" x="0px" y="0px"
	 width="300px" height="300px" viewBox="-155 247 300 300" style="enable-background:new -155 247 300 300;" xml:space="preserve">
<style type="text/css">
	.st0{fill:#FFCE31;}
</style>
<g>
	<path id="Path_1888" class="st0" d="M-87.4693222,300.5997925c0-7.3702698-0.074234-14.7281799,0-22.0863953
		c0.0046463-7.4550171,6.0502396-13.4933472,13.5038834-13.4902649c6.3006363,0.0031128,11.759285,4.3633423,13.1549568,10.5077515
		c0.2595253,1.3288574,0.3883591,2.6821594,0.3854218,4.0385437c0,14.1454163,0,28.2880554,0,42.4306946
		c0.3322144,6.1048279-3.427166,11.6850586-9.2089043,13.6724548c-7.05616,2.402832-14.7252502-1.3715515-17.1268463-8.4263
		c-0.4732666-1.3894958-0.7160873-2.8460999-0.7205734-4.311676
		C-87.5936661,315.51297-87.4813843,308.0579224-87.4693222,300.5997925z"/>
	<path id="Path_1889" class="st0" d="M50.7210159,300.6740417c0-7.4581299,0-14.9134827,0-22.371582
		c0.0666618-7.4126587,6.1291161-13.3687134,13.5417709-13.3019104c7.3186264,0.0664978,13.2353821,5.9832764,13.3020477,13.3019104
		c0,14.9134521,0,29.8266296,0,44.7428589c-0.0303192,7.4188538-6.0714264,13.4114075-13.4901123,13.3779907
		c-6.056427-0.0241089-11.3480453-4.0991516-12.9198761-9.9491272c-0.3155136-1.3139954-0.4612045-2.6641846-0.4338303-4.0144043
		C50.7087975,315.2020874,50.7210159,307.9440918,50.7210159,300.6740417z"/>
	<path id="Path_1890" class="st0" d="M14.5422487,427.1321716h-38.527317
		c-0.6082878-2.2364197-0.684227-36.0409851-0.0621758-38.7899475h38.5894928V427.1321716z"/>
	<path id="Path_1891" class="st0" d="M-46.8279228,388.355835v38.7899475H-85.553978V388.355835H-46.8279228z"/>
	<path id="Path_1892" class="st0" d="M37.0009232,388.3298645H75.393219
		c0.6341171,2.0511169,0.7827454,35.5581055,0.1486282,38.8140564h-38.528862L37.0009232,388.3298645z"/>
	<path id="Path_1893" class="st0" d="M-24.283102,485.730011v-38.7896423h38.8261261v38.7896423H-24.283102z"/>
	<path id="Path_1894" class="st0" d="M37.0001488,446.9310913h38.7260551v38.7899475H37.0001488V446.9310913z"/>
	<g>
		<path class="st0" d="M122.3353195,335.3827515c-0.1221848-9.6377869-5.1543503-18.0798645-12.7074432-22.9822693
			c-6.1878052-4.1846924-13.9459-5.9780273-21.745369-4.4835815c-0.2767715,0-0.55439,0-0.830925,0
			c-0.347374,0.0606079-0.6857758,0.1639404-1.0073166,0.3096313c0,0.0323181-0.0042496,0.0661926-0.0045624,0.0986023
			c-0.0194855,0.0050049-0.0389709,0.0085754-0.0584641,0.0136719c0,0.375061,0.0044098,0.7518311,0.0059586,1.1274109
			c-0.0353394,0.5151978-0.0728455,1.0350952-0.0794983,1.5578308c0,3.9779358,0,7.9406738,0,11.9183044
			c-0.0120621,0.7207031-0.063797,1.4312439-0.1436005,2.1329956c-0.0165482,0.1394348-0.0415268,0.2778625-0.0599365,0.4170532
			c-1.4495697,10.8805847-10.8443832,19.1911316-22.0859337,19.0024414
			c-10.4726524-0.1759949-19.3584671-7.7374573-21.2093124-18.0478516
			c-0.3065414-2.5942993-0.4066048-5.2068787-0.2989616-7.8160095c0-3.4681702,0-6.9211426,0-10.5653076h-0.2996597h-93.6205902
			h-0.2996597c0,3.644165,0,7.0971375,0,10.5653076c0.1076431,2.6091309,0.0075798,5.2217102-0.2989616,7.8160095
			c-1.8508453,10.3103943-10.73666,17.8718567-21.2093086,18.0478516
			c-11.2403946,0.1886902-20.6341248-8.1201477-22.0853195-18.9990234c-0.0187149-0.14151-0.0439224-0.2819519-0.0607071-0.4236145
			c-0.0795746-0.7007751-0.1313858-1.4102173-0.1434479-2.1298523c0-3.9776306,0-7.9403687,0-11.9183044
			c-0.0066528-0.5232239-0.0440826-1.0435791-0.0794983-1.5591431c0.0015488-0.3751221,0.0059586-0.7514954,0.0059586-1.1260986
			c-0.0194931-0.0050964-0.0389786-0.008667-0.0584641-0.0136719c-0.0003128-0.0324097-0.0045624-0.0662842-0.0045624-0.0986023
			c-0.3215408-0.1456909-0.6599426-0.2490234-1.0073166-0.3096313c-0.276535,0-0.5541534,0-0.830925,0
			c-7.799469-1.4944458-15.5575638,0.2988892-21.745369,4.4835815c-7.553093,4.9024048-12.5852585,13.3444824-12.7074509,22.9822693
			c0.0015564,30.8068848,0.0015564,61.6103821,0,92.4169312c0,0.2056274,0.0181732,0.4212341,0.0281525,0.6304932
			c-0.0102844,24.0843201-0.0093536,48.1671143-0.027298,72.2519836
			c-0.1047058,13.3869324,9.2619553,24.9810486,22.3714447,27.6903992c2.5714188,0.4553833,5.1808777,0.6644897,7.791893,0.6220703
			c25.6136246,0,51.2233887,0,76.833847,0h3.0067902c11.5519629,0,23.1077919,0,34.6609917,0c1.0022898,0,2.0045786,0,3.0067911,0
			c25.6104603,0,51.2202225,0,76.833847,0c2.6110153,0.0424194,5.2204742-0.166687,7.791893-0.6220703
			c13.1094894-2.7093506,22.4761505-14.3034668,22.3714447-27.6903992
			c-0.0179443-24.0846558-0.0170135-48.1671143-0.027298-72.2511292c0.0099716-0.2095032,0.0281448-0.425415,0.0281448-0.6313477
			C122.3337708,396.9931335,122.3337708,366.1896362,122.3353195,335.3827515z M16.1679001,504.3157043
			c0.000927-0.0055542,0.0014687-0.0110474,0.0023975-0.0166321l-21.1702595,0.0083618l-21.1703358-0.0083618
			c0.0009289,0.0055847,0.0014706,0.0110779,0.0023975,0.0166321l-81.1705093,0.0319519v-75.02005
			c0.0068054,0.0005493,0.0136871,0.0008545,0.0204926,0.0013733v-59.2072144H97.3179169v59.2072144
			c0.0068054-0.0005188,0.0136871-0.000824,0.0204926-0.0013733v75.02005L16.1679001,504.3157043z"/>
		<path class="st0" d="M59.6339722,335.6726074c7.05616,2.402832,14.7252426-1.3715515,17.1268463-8.4263306
			c0.4732666-1.3894958,0.7160797-2.8460999,0.7205658-4.311676c0.1122894-7.4216309,0-14.8766479-0.0120621-22.3347778
			c0-7.3703003,0.0742416-14.7281799,0-22.0863953c-0.0046387-7.4550476-6.0502319-13.4933777-13.5038757-13.4902954
			c-6.3006363,0.0031128-11.7592888,4.3633423-13.1549606,10.507782c-0.2595253,1.3288574-0.3883591,2.6821594-0.3854179,4.0385437
			c0,14.1454163,0,28.2880554,0,42.4306641C50.0928535,328.1049805,53.8522301,333.6851807,59.6339722,335.6726074z"/>
		<path class="st0" d="M-74.0747147,336.4233398c6.056427-0.0241394,11.3480415-4.0991821,12.9198723-9.9491272
			c0.3155136-1.3140259,0.4612045-2.6642151,0.4338303-4.0144348c0.0122185-7.2576599,0-14.5156555,0-21.7857361
			c0-7.4581299,0-14.9134521,0-22.371582c-0.0666618-7.4126587-6.1291161-13.3687134-13.5417747-13.3018799
			c-7.3186188,0.0664978-13.2353821,5.9832458-13.3020401,13.3018799c0,14.9134521,0,29.8266296,0,44.7428894
			C-87.5345154,330.4641724-81.4934006,336.4567261-74.0747147,336.4233398z"/>
		<path class="st0" d="M-24.542244,388.3422241v38.7899475h38.527317c0.6082869-2.2364197,0.684226-36.0409546,0.0621738-38.7899475
			H-24.542244z"/>
		<rect x="36.8279266" y="388.355835" class="st0" width="38.726059" height="38.7899323"/>
		<path class="st0" d="M-47.0129814,427.1439209l0.0120659-38.8140564h-38.3922958
			c-0.6341171,2.0511169-0.7827454,35.5581055-0.1486359,38.8140564H-47.0129814z"/>
		<rect x="-24.5430164" y="446.9403992" class="st0" width="38.8261261" height="38.7896233"/>
		<rect x="-85.7262039" y="446.9311218" class="st0" width="38.726059" height="38.7899323"/>
	</g>
</g>
</svg>
