<?xml version="1.0" encoding="utf-8"?>
<!-- Generator: Adobe Illustrator 19.0.0, SVG Export Plug-In . SVG Version: 6.00 Build 0)  -->
<svg version="1.1" id="Layer_1" xmlns="http://www.w3.org/2000/svg" xmlns:xlink="http://www.w3.org/1999/xlink" x="0px" y="0px"
	 width="300px" height="300px" viewBox="-155 247 300 300" style="enable-background:new -155 247 300 300;" xml:space="preserve">
<style type="text/css">
	.st0{fill:#ffce31;}
</style>
<g id="Group_3136" transform="translate(-3520.071 -982.899)">
	<path id="Path_1863" class="st0" d="M3647.0488281,1450.0375977c-7.6401367,40.635376-68.5256348,50.5715332-98.6755371,26.953125
		c-10.4143066-7.7849121-16.4287109-20.1203613-16.1499023-33.1208496c-0.7919922-12.5,6.3991699-24.137085,17.9316406-29.020752
		c5.9724121-2.7757568,12.2768555-4.8419189,18.2746582-7.6176758c6.8339844-1.9602051,10.7822266-9.088501,8.8220215-15.9212646
		c-0.4768066-1.6673584-1.2880859-3.220459-2.3811035-4.5672607c-3.0141602-5.0133057-6.9902344-9.456543-11.6162109-15.5671387
		c18.6901855,3.1508789,36.5046387,10.206665,52.2836914,20.7060547
		c16.1025391,9.5512695,27.5205078,25.3526611,31.532959,43.6397705L3647.0488281,1450.0375977z M3596.5803223,1462.8861084
		v-33.4973145h-9.8342285v33.4973145H3596.5803223z M3600.715332,1417.6708984
		c-4.2827148-2.7075195-6.8535156-5.5501709-9.1928711-5.435791c-1.9882813,0.0919189-3.8144531,3.6540527-5.7104492,5.7104492
		c2.1245117,1.9865723,4.0541992,5.2084961,6.4296875,5.5737305c1.904541,0.2719727,4.3608398-2.8565674,8.4597168-5.8720703
		L3600.715332,1417.6708984z"/>
	<path id="Path_1864" class="st0" d="M3550.8491211,1406.5802002c-28.050293,10.8952637-33.9086914,33.5664063-20.5581055,62.152832
		c-2.2836914,0.1373291-4.3862305,0.354126-6.4521484,0.3652344c-43.1491699,0-86.2954102-0.102417-129.4333496,0.159668
		c-4.3554688,0.7263184-8.4736328-2.215332-9.201416-6.5699463c-0.036377-0.2265625-0.064209-0.4538574-0.0837402-0.6824951
		c-5.2307129-20.1810303-0.8671875-29.8083496,17.9538574-38.6368408
		c18.2746582-8.5887451,36.4794922-17.394165,54.7177734-26.0965576c5.8498535-3.7648926,8.1474609-11.1887207,5.4484863-17.5997314
		c-3.0839844-6.2131348-5.2419434-12.871582-7.9941406-19.2672119c-1.1430664-2.7298584-2.9919434-5.1737061-4.0541992-7.9257813
		c-5.3813477-9.276001-6.625-20.3839111-3.4267578-30.619873c0.6105957-1.84729,0.9702148-3.7677002,1.0734863-5.7104492
		c0.708252-4.9910889,0.9814453-10.0734863,2.1022949-14.9725342c2.7492676-16.2446289,16.0773926-28.6108398,32.480957-30.1395264
		c7.6289063-1.100708,15.3720703-1.100708,23.0009766,0c18.2634277,2.1177979,32.4140625,16.9689941,33.6464844,35.3132324
		c1.9406738,6.0994873,3.2873535,12.3717041,4.020752,18.7304688c-0.892334,9.286499-2.6740723,18.4655762-5.322998,27.4105225
		c-1.4748535,3.5300293-3.2260742,6.9366455-5.2419434,10.1877441c-2.3867188,5.3905029-4.1462402,11.0780029-6.7143555,16.3778076
		c-3.2287598,6.7589111-0.644043,14.864502,5.9057617,18.5018311
		C3538.5944824,1400.3671875,3544.3969727,1403.3597412,3550.8491211,1406.5802002z"/>
</g>
</svg>
