<?xml version="1.0" encoding="utf-8"?>
<!-- Generator: Adobe Illustrator 19.0.0, SVG Export Plug-In . SVG Version: 6.00 Build 0)  -->
<svg version="1.1" id="Layer_1" xmlns="http://www.w3.org/2000/svg" xmlns:xlink="http://www.w3.org/1999/xlink" x="0px" y="0px"
	 width="300px" height="300px" viewBox="-155 247 300 300" style="enable-background:new -155 247 300 300;" xml:space="preserve">
<style type="text/css">
	.st0{fill:#ffce31;}
</style>
<path id="Path_1865" class="st0" d="M-51.5375519,434.7452698l10.328743,84.9439392L-63.5663376,525
	c-7.9803467-26.1281128-16.0204544-51.2523193-23.1791687-76.6095581
	c-2.5336304-8.9588623-5.1031189-14.85672-16.0563049-16.5941162
	c-16.3252106-2.6187744-19.0918884-16.3864441-19.1396942-31.5987244
	c-14.1590652,0.2808533-15.5304642-8.8721924-14.6132126-19.5803833
	c1.003891-11.7479248-5.8620148-27.3157349,14.3562622-28.7707825c3.1939316-28.5751038,9.1784515-33.9351807,37.1051941-33.9605713
	c13.31353,0,26.6419945-0.3555298,39.9435768,0.1583557c6.2175598,0.2449951,14.9179649-4.0140686,17.1319065,7.1841125
	c0.1703033,0.8813782,5.5184231,1.5536499,8.1745548,0.9784851c33.881382-6.0457458,65.8864365-19.9075317,93.4725723-40.4828491
	c3.893074-3.0968323,6.3759155-7.9549561,10.2301483-11.125c3.2178345-2.6561279,8.5659561-6.4984131,11.0129395-5.4093628
	c4.2008133,2.2632446,7.1378021,6.3191528,7.9803543,11.0144348c0.9052963,16.3506165-0.2210999,32.8102722,0.7947464,49.1354675
	c0.4989548,6.1010437,3.1999054,11.8136597,7.6008987,16.0682678c16.5642319,11.5522156,20.6305923,34.3444824,9.0768661,50.9102173
	c-2.5754623,3.6943665-5.8112259,6.8793335-9.5429535,9.3980408c-4.1320953,3.8960571-6.677681,9.1844177-7.146759,14.8447571
	c-0.9172516,15.8232727,0.182251,31.8183289-0.6722565,47.6057434c-1.3474808,5.0463562-3.6211777,9.7984009-6.7075577,14.0126648
	c-4.6011734-2.0302124-9.0230789-4.4458313-13.2179184-7.2199707c-6.6746902-6.9540405-14.0963287-13.1506958-22.1274681-18.4794006
	c-24.0366592-11.0144348-48.7694702-20.5230103-73.5739899-29.6895142
	c-5.8022614-2.1422424-14.0007191-7.3424683-18.7124424,4.6265564
	C-32.4815178,434.4016724-43.3002548,433.5695801-51.5375519,434.7452698z"/>
</svg>
