<?xml version="1.0" encoding="utf-8"?>
<!-- Generator: Adobe Illustrator 19.0.0, SVG Export Plug-In . SVG Version: 6.00 Build 0)  -->
<svg version="1.1" id="Layer_1" xmlns="http://www.w3.org/2000/svg" xmlns:xlink="http://www.w3.org/1999/xlink" x="0px" y="0px"
	 width="300px" height="300px" viewBox="-155 247 300 300" style="enable-background:new -155 247 300 300;" xml:space="preserve">
<style type="text/css">
	.st0{fill:#ffce31;}
</style>
<g id="Group_3148" transform="translate(-1367.257 -3205.312)">
	<path id="Path_1886" class="st0" d="M1467.5275879,3659.5522461v-105.9404297h-161.5290527v46.7304688
		c-6.5522461-0.5507813-13.1477051-0.239502-19.6185303,0.9221191c-0.0490723-0.8046875-0.1269531-1.470459-0.1269531-2.1291504
		c0.0012207-24.3146973,0.0012207-48.6269531,0-72.9418945c0.1497803-11.8112793,9.6141357-21.3881836,21.4229736-21.6779785
		c2.1386719,0,4.2868652,0,6.425415,0c0.2741699,0.0478516,0.5412598,0.1293945,0.7950439,0.2443848
		c0,0.7160645,0.0982666,1.4606934,0.1077881,2.2080078c0,3.1396484,0,6.267334,0,9.4067383
		c0.1604004,9.5554199,8.0371094,17.1711426,17.5924072,17.0107422c8.2657471-0.138916,15.2790527-6.1069336,16.7398682-14.2446289
		c0.2419434-2.0476074,0.3209229-4.1096191,0.2359619-6.1689453c0-2.7373047,0-5.4626465,0-8.3388672h74.128418
		c0.0587158,0.6464844,0.1473389,1.2355957,0.1473389,1.8151855c0,3.3647461,0,6.7294922,0,10.0942383
		c0.1101074,9.5673828,7.9544678,17.2331543,17.5206299,17.1230469c7.7844238-0.088623,14.5533447-5.3596191,16.5471191-12.8864746
		c0.4154053-1.7817383,0.6334229-3.604248,0.6477051-5.4338379c0.0982666-3.5014648,0-7.0146484,0-10.496582
		c12.2651367-3.2019043,24.8057861,4.1430664,28.0087891,16.4094238c0.088623,0.3398438,0.1688232,0.6799316,0.2419434,1.0224609
		c0.2885742,1.4992676,0.4202881,3.0246582,0.3927002,4.5524902c0,43.2724609,0.0168457,86.5493164,0.0490723,129.826416
		c0.0826416,10.565918-7.3101807,19.7167969-17.6571045,21.8552246c-2.029541,0.359375-4.0891113,0.5244141-6.1499023,0.4909668
		c-30.1269531,0-60.2528076,0-90.3726807,0h-2.3731689c0.6010742-6.4995117,0.3807373-13.0471191-0.6574707-19.4914551
		L1467.5275879,3659.5522461z"/>
	<path id="Path_1887" class="st0" d="M1362.128418,3671.4428711c0.0562744,34.4833984-27.850708,62.4812012-62.3326416,62.5388184
		c-34.4820557,0.057373-62.4824219-27.8520508-62.5386963-62.3327637
		c-0.0562744-34.2126465,27.4316406-62.0981445,61.640625-62.5339355
		c34.5944824-0.3256836,62.90271,27.4543457,63.2283936,62.0500488
		C1362.1273193,3671.2561035,1362.128418,3671.3496094,1362.128418,3671.4428711z M1306.480957,3670.5209961v-2.8452148
		c0-10.6975098,0-21.3977051,0-32.095459c0.038208-0.9890137-0.0574951-1.9804688-0.2850342-2.9433594
		c-1.0021973-3.1035156-4.0855713-5.043457-7.3173828-4.6003418c-3.3587646,0.2729492-5.9320068,3.1037598-5.885376,6.4731445
		c-0.0454102,14.3881836-0.0454102,28.7524414,0,43.1022949c-0.0921631,3.3049316,2.4320068,6.097168,5.7285156,6.3366699
		c0.833374,0.1030273,1.6715088,0.1484375,2.5109863,0.1364746h26.8184814
		c0.8393555,0.0119629,1.6776123-0.0334473,2.5109863-0.1364746c3.6712646-0.5053711,6.2374268-3.8891602,5.7332764-7.5605469
		c-0.3496094-2.5456543-2.1230469-4.6674805-4.5657959-5.4648438c-1.0273438-0.2851563-2.0919189-0.416748-3.1588135-0.3928223
		c-6.4156494,0-12.8398438,0-19.2556152,0L1306.480957,3670.5209961z"/>
	<path id="Path_1888" class="st0" d="M1321.6644287,3498.7402344c0-5.8171387-0.0585938-11.6245117,0-17.4321289
		c0.0036621-5.8840332,4.7752686-10.6499023,10.6582031-10.6474609c4.9729004,0.0024414,9.28125,3.4438477,10.3828125,8.293457
		c0.204834,1.0488281,0.3065186,2.1169434,0.3041992,3.1875c0,11.1645508,0,22.3269043,0,33.4892578
		c0.262207,4.8183594-2.7049561,9.2226563-7.2683105,10.7912598c-5.5692139,1.8964844-11.6221924-1.0825195-13.5177002-6.6506348
		c-0.3735352-1.0966797-0.5651855-2.2463379-0.5687256-3.4030762
		C1321.5662842,3510.5107422,1321.6549072,3504.626709,1321.6644287,3498.7402344z"/>
	<path id="Path_1889" class="st0" d="M1430.7338867,3498.7988281c0-5.8864746,0-11.770752,0-17.6572266
		c0.0526123-5.8505859,4.8375244-10.5515137,10.6881104-10.4987793c5.7763672,0.0524902,10.4462891,4.7224121,10.4989014,10.4987793
		c0,11.770752,0,23.5412598,0,35.314209c-0.0239258,5.8554688-4.7919922,10.5852051-10.6473389,10.5588379
		c-4.7801514-0.019043-8.956665-3.2353516-10.1972656-7.8525391c-0.2490234-1.0371094-0.3640137-2.1027832-0.3424072-3.168457
		C1430.7242432,3510.2653809,1430.7338867,3504.5368652,1430.7338867,3498.7988281z"/>
	<path id="Path_1890" class="st0" d="M1402.1790771,3598.6083984h-30.4084473
		c-0.4801025-1.7651367-0.5400391-28.4460449-0.0490723-30.6157227h30.4575195V3598.6083984z"/>
	<path id="Path_1891" class="st0" d="M1353.7414551,3568.003418v30.6157227h-30.5653076v-30.6157227H1353.7414551z"/>
	<path id="Path_1892" class="st0" d="M1419.9050293,3567.9829102h30.3018799
		c0.5004883,1.6188965,0.6177979,28.0649414,0.1173096,30.6347656h-30.409668L1419.9050293,3567.9829102z"/>
	<path id="Path_1893" class="st0" d="M1371.5354004,3644.8579102v-30.6154785h30.6442871v30.6154785H1371.5354004z"/>
	<path id="Path_1894" class="st0" d="M1419.9044189,3614.2351074h30.5653076v30.6157227h-30.5653076V3614.2351074z"/>
</g>
</svg>
