<?xml version="1.0" encoding="utf-8"?>
<!-- Generator: Adobe Illustrator 19.0.0, SVG Export Plug-In . SVG Version: 6.00 Build 0)  -->
<svg version="1.1" id="Layer_1" xmlns="http://www.w3.org/2000/svg" xmlns:xlink="http://www.w3.org/1999/xlink" x="0px" y="0px"
	 width="300px" height="300px" viewBox="-155 247 300 300" style="enable-background:new -155 247 300 300;" xml:space="preserve">
<style type="text/css">
	.st0{fill:#ffce31;}
</style>
<g id="Group_3138" transform="translate(-4187.941 -1264.9)">
	<path id="Path_1869" class="st0" d="M4151.0087891,1727.6558838c-1.0219727-7.5015869-2.8520508-14.8696289-5.4560547-21.9790039
		c-6.1655273-12.1097412-12.9848633-23.8730469-20.4375-35.2366943
		c-8.4360352-11.5357666-14.4560547-24.6599121-17.6884766-38.5814209
		c-3.8310547-19.9641113,0.5942383-40.6282959,12.2583008-57.2766113
		c11.0097656-16.1278076,27.7919922-27.4123535,46.8828125-31.5233154
		c31.2807617-6.6893311,63.4550781,6.5545654,80.9638672,33.3276367
		c17.777832,26.7398682,16.4052734,61.8676758-3.4077148,87.1367188c-5.8408203,7.96875-11.9077148,15.762207-17.7739258,23.7213135
		c-5.6567383,7.5882568-9.2270508,16.5296631-10.3427734,25.9287109c-0.3334961,1.6429443-1.440918,3.020752-2.9760742,3.6951904
		c-20.0273438,3.7304688-40.097168,7.21521-60.1586914,10.744751
		C4152.2529297,1727.6911621,4151.628418,1727.7050781,4151.0087891,1727.6558838z"/>
	<path id="Path_1870" class="st0" d="M4155.0551758,1762.0251465c-1.6035156-1.7508545-3.8696289-3.2484131-4.6479492-5.3060303
		c-0.9233398-2.3131104,0.2011719-4.9373779,2.5141602-5.8598633c0.3208008-0.1271973,0.6499023-0.2169189,0.987793-0.2692871
		c7.4526367-1.7508545,14.9560547-3.3275146,22.4516602-4.8603516c9.8081055-2.005249,19.625-3.9144287,29.4375-5.8673096
		c0.7700195-0.1485596,1.5395508-0.2543945,2.3134766-0.4200439c3.7924805-0.8754883,6.7167969,0.3153076,7.5849609,4.2382813
		c0.8764648,4.1419678-1.7529297,5.9890137-5.4042969,6.7683105c-4.5966797,0.9812012-9.1972656,1.9229736-13.8022461,2.8283691
		c-12.7329102,2.5162354-25.4697266,5.0174561-38.2114258,7.5047607l-2.3046875,0.4383545L4155.0551758,1762.0251465z"/>
	<path id="Path_1871" class="st0" d="M4211.3798828,1722.3408203c1.2524414,1.4890137,3.7666016,3.1960449,4.2626953,5.3594971
		c0.8764648,3.7124023-2.0053711,5.6300049-5.4213867,6.3226318c-7.362793,1.5061035-14.7553711,2.9160156-22.1269531,4.3782959
		c-9.8339844,1.9528809-19.6420898,4.0800781-29.519043,5.7614746c-2.3901367,0.4350586-4.8613281-0.0673828-6.8920898-1.4013672
		c-3.6259766-3.0389404-1.2441406-8.1782227,4.3779297-9.3519287c12.574707-2.6274414,25.1923828-5.0612793,37.7841797-7.5743408
		L4211.3798828,1722.3408203z"/>
	<path id="Path_1872" class="st0" d="M4166.9018555,1766.6665039l32.050293-5.3156738
		c1.2529297,6.8549805-1.1630859,13.8670654-6.375,18.4943848c-7.0888672,5.3221436-17.1494141,3.8897705-22.4726563-3.1993408
		c-2.1591797-2.8753662-3.2880859-6.3931885-3.2114258-9.987915L4166.9018555,1766.6665039z"/>
	<path id="Path_1873" class="st0" d="M4102.5698242,1570.5114746l-37.4763184-17.2148438l7.3928223-12.5394287
		c10.8771973,7.7849121,21.3481445,15.0963135,31.6010742,22.7059326
		C4107.7519531,1566.1333008,4103.612793,1567.8050537,4102.5698242,1570.5114746z"/>
	<path id="Path_1874" class="st0" d="M4263.8808594,1570.2486572c-4.5024414-4.9468994-4.527832-4.9821777,0.1411133-8.3717041
		c9.5175781-6.8828125,19.0737305-13.7302246,29.3779297-21.1378174l7.5039063,12.163208L4263.8808594,1570.2486572z"/>
	<path id="Path_1875" class="st0" d="M4051.0043945,1605.6160889c4.9382324,0.5076904,9.2653809,0.9544678,13.6008301,1.3927002
		c7.1787109,0.7183838,14.3874512,1.2346191,21.5236816,2.2768555c1.6845703,0.6038818,2.9672852,1.9935303,3.4333496,3.7219238
		c-0.2180176,1.6279297-1.2741699,3.0218506-2.7834473,3.6685791c-11.0527344,1.2869873-22.1350098,2.2852783-33.2731934,3.1083984
		c-0.7609863,0.0523682-2.3046875-1.8481445-2.3986816-2.942749
		C4050.8076172,1613.4266357,4051.0043945,1609.9771729,4051.0043945,1605.6160889z"/>
	<path id="Path_1876" class="st0" d="M4314.940918,1606.0106201c0,3.958252,0,7.381958,0,10.7971191
		c0,2.3815918-0.8037109,3.2666016-3.3989258,3.0036621c-10.253418-1.0422363-20.527832-1.8299561-30.7978516-2.776001
		c-2.3129883-0.2105713-4.6860352-0.2191162-4.6689453-3.7828369s2.0224609-4.0020752,4.7885742-4.2735596
		c9.4833984-0.9191895,18.949707-1.9967041,28.4248047-2.9512939
		C4310.9858398,1605.8609619,4312.6918945,1606.0106201,4314.940918,1606.0106201z"/>
	<path id="Path_1877" class="st0" d="M4293.6098633,1685.1607666c-9.6328125-6.8217773-18.440918-13.0556641-27.2783203-19.2115479
		c-2.4501953-1.7508545-1.855957-3.5028076-0.7270508-5.6300049c1.21875-2.3120117,2.6254883-2.5214844,4.9296875-1.4622803
		c8.9365234,4.0854492,17.9282227,8.0617676,26.9711914,11.927002c2.5566406,1.0773926,3.0654297,2.180542,1.6118164,4.5354004
		C4297.2529297,1678.3389893,4295.6411133,1681.4912109,4293.6098633,1685.1607666z"/>
	<path id="Path_1878" class="st0" d="M4097.7109375,1657.6916504c4.7202148,6.208252,4.6948242,6.269165-1.1630859,10.3234863
		c-7.8200684,5.4119873-15.605957,10.8665771-24.0375977,16.7424316c-2.2490234-3.8095703-4.3781738-7.1713867-6.1826172-10.7265625
		c-0.2907715-0.586792,0.8764648-2.5397949,1.7529297-2.9598389
		C4077.8249512,1666.5443115,4087.6760254,1662.1917725,4097.7109375,1657.6916504z"/>
</g>
</svg>
