<?xml version="1.0" encoding="utf-8"?>
<!-- Generator: Adobe Illustrator 19.0.0, SVG Export Plug-In . SVG Version: 6.00 Build 0)  -->
<svg version="1.1" id="Layer_1" xmlns="http://www.w3.org/2000/svg" xmlns:xlink="http://www.w3.org/1999/xlink" x="0px" y="0px"
	 width="300px" height="300px" viewBox="-155 247 300 300" style="enable-background:new -155 247 300 300;" xml:space="preserve">
<style type="text/css">
	.st0{fill:#ffce31;}
</style>
<g id="Group_3137" transform="translate(-3432.909 -1579.992)">
	<path id="Path_1866" class="st0" d="M3328.3032227,2055.1223145c-6.8913574,0-13.345459,0-19.7993164,0
		c-6.3745117,0.5581055-11.9936523-4.1550293-12.550293-10.5283203c-0.0595703-0.6760254-0.0595703-1.3569336,0-2.032959
		c0-54.4873047,0-108.97229,0-163.458374c-0.5441895-6.4030762,4.2023926-12.0356445,10.604248-12.5799561
		c0.6560059-0.0559082,1.3146973-0.0571289,1.9682617-0.0012207c68.8815918,0,137.760498,0,206.6396484,0
		c6.3569336-0.4932861,11.9089355,4.2583008,12.4033203,10.6153564c0.0473633,0.6101074,0.0449219,1.223999-0.0048828,1.8341064
		c0,6.53479,0,13.0595703,0,19.8192139c1.0187988,0.0509033,1.9035645,0.1317139,2.7387695,0.1317139
		c6.0263672,0,12.0529785-0.0509033,18.0671387,0c6.2675781-0.1043701,11.4316406,4.8920898,11.5361328,11.159668
		c0.0048828,0.1751709,0.0024414,0.3504639-0.0024414,0.5256348c0,55.0080566,0,110.0209961,0,165.0366211
		c0.1589355,6.390625-4.8933105,11.6975098-11.2851563,11.8566895c-0.4226074,0.0100098-0.8449707-0.0024414-1.2651367-0.0385742
		c-16.3273926,0.0334473-32.6525879,0.0334473-48.9726563,0c-51.684082-0.0012207-103.3632813-0.0012207-155.0400391,0
		c-1.8291016,0.0595703-3.657959-0.043457-5.4672852-0.3056641c-5.6188965-0.7927246-9.7368164-5.6884766-9.5578613-11.3596191
		c-0.0622559-5.8527832,0-11.6965332,0-17.5490723L3328.3032227,2055.1223145z M3538.2207031,2065.8508301v-145.248291h-188.2045898
		v145.248291H3538.2207031z M3317.6367188,1888.1921387v145.2172852h10.6689453v-2.2801514c0-14.4077148,0-28.8131104,0-43.2208252
		c0-25.671875,0-51.3436279,0-77.0167236c-0.322998-5.647583,3.6010742-10.6551514,9.1604004-11.6964111
		c1.7246094-0.2659912,3.4692383-0.3579102,5.2114258-0.2746582h163.144043v-10.7285156H3317.6367188z"/>
	<path id="Path_1867" class="st0" d="M3527.4714355,2053.1379395h-166.5737305
		c0.5095215-0.8647461,0.8251953-1.5061035,1.232666-2.0861816c13.3679199-19.2800293,26.7480469-38.5550537,40.1381836-57.8287354
		c3.0739746-4.4249268,6.2700195-4.4746094,9.5876465-0.152832c4.8261719,6.3110352,9.6101074,12.6419678,14.4338379,18.9431152
		c3.2680664,4.2857666,6.3222656,4.2546387,9.6103516-0.060791l35.0158691-46.0402832
		c4.0708008-5.3642578,6.6677246-5.385376,10.6789551-0.0709229c14.7644043,19.5720215,29.5112305,39.1563721,44.2285156,58.7545166
		c0.9765625,1.3792725,1.5234375,3.0144043,1.578125,4.703125
		C3527.5534668,2037.1359863,3527.4714355,2044.9841309,3527.4714355,2053.1379395z"/>
	<path id="Path_1868" class="st0" d="M3396.0668945,1933.480835c10.4228516,0.0273438,18.8500977,8.5004883,18.8227539,18.9233398
		c-0.0297852,10.4228516-8.501709,18.8487549-18.9245605,18.8214111
		c-10.4228516-0.0285645-18.8500977-8.5004883-18.8203125-18.9233398c0-0.0410156,0-0.0806885,0-0.1217041
		C3377.2119141,1941.7937012,3385.6813965,1933.4249268,3396.0668945,1933.480835z"/>
</g>
</svg>
