<?xml version="1.0" encoding="utf-8"?>
<!-- Generator: Adobe Illustrator 19.0.0, SVG Export Plug-In . SVG Version: 6.00 Build 0)  -->
<svg version="1.1" id="Layer_1" xmlns="http://www.w3.org/2000/svg" xmlns:xlink="http://www.w3.org/1999/xlink" x="0px" y="0px"
	 width="300px" height="300px" viewBox="-155 247 300 300" style="enable-background:new -155 247 300 300;" xml:space="preserve">
<style type="text/css">
	.st0{fill:#ffce31;}
</style>
<g id="Group_14164" transform="translate(-2190.49 -2895.483)">
	<path id="Path_10973" class="st0" d="M2053.4899902,3319.3574219
		c12.1877441-14.8740234,24.4521484-29.6787109,36.5380859-44.6293945
		c5.4560547-6.9240723,12.9775391-11.9238281,21.4741211-14.2741699c1.2944336-0.2478027,2.6027832-0.4099121,3.9182129-0.4841309
		c3.5939941,13.7348633,7.171875,27.3376465,10.7172852,40.9289551c1.0722656,4.1171875,2.0102539,8.2810059,3.1494141,12.3312988
		c0.9311523,8.0612793,8.2211914,13.8413086,16.2822266,12.9082031c3.184082-0.3684082,6.1599121-1.7670898,8.4755859-3.9831543
		c16.9746094-12.1416016,33.875-24.3781738,50.7084961-36.7094727c5.1269531-4.2541504,12.1552734-5.3935547,18.3637695-2.9780273
		c9.0268555,3.5244141,13.489502,13.6999512,9.9648438,22.7290039c-0.8312988,2.1281738-2.0703125,4.0734863-3.6472168,5.7270508
		c-7.0771484,8.1188965-14.6264648,15.8120117-21.958252,23.7133789c-0.8730469,0.9494629-1.6696777,1.9543457-3.7932129,4.4855957
		l32.1452637-8.0241699c8.1767578-2.0493164,9.6474609-1.1762695,11.8103027,7.046875
		c1.3083496,4.9882813,2.4177246,10.0366211,3.9645996,14.9389648c2.670166,6.4333496,0.9077148,13.8552246-4.3720703,18.401123
		c-4.7751465,4.2285156-11.6599121,5.0876465-17.3288574,2.1628418c-4.2819824,4.4902344-9.0546875,8.4873047-14.2280273,11.9145508
		c-6.3452148,3.2353516-12.0466309-0.6923828-16.9121094-5.0180664c-10.1408691,11.2868652-18.3918457,11.5625-29.2805176,0.4931641
		c-21.0756836,25.6101074-51.2199707,33.1408691-81.5170898,40.3591309
		c-6.9243164,1.651123-9.1635742,0.0949707-11.1921387-7.7207031c-7.276123-27.9768066-14.5500488-55.958252-21.8168945-83.9465332
		c-0.4052734-1.2480469-0.8869629-2.4709473-1.442627-3.6611328L2053.4899902,3319.3574219z"/>
	<path id="Path_10974" class="st0" d="M2298.3356934,3208.1682129c3.8974609,15.0339355,7.5888672,29.5004883,11.3820801,43.9645996
		c2.3713379,9.0986328,4.7612305,18.192627,7.171875,27.2797852c1.6025391,6.041748,0.1228027,11.3818359-5.965332,13.1464844
		c-19.53125,5.5878906-39.2407227,10.4997559-59.510498,15.8305664c0.152832-3.072998,0.2663574-5.2636719,0.3703613-7.4660645
		c1.3132324-13.6166992-5.833252-26.6520996-18.0212402-32.8674316c-11.7199707-7.0446777-26.536377-6.2944336-37.4851074,1.8964844
		c-14.5593262,10.0827637-28.7595215,20.6774902-43.1196289,31.045166
		c-1.9821777,1.4311523-4.0039063,2.8459473-6.7341309,4.7426758l-14.1516113-54.4458008L2298.3356934,3208.1682129z"/>
	<path id="Path_10975" class="st0" d="M2127.5241699,3232.6032715c-1.8967285-7.0769043-3.7470703-13.0517578-5.0461426-19.1513672
		c-1.4311523-6.6394043,1.6975098-10.9372559,9.3811035-12.9475098
		c30.5288086-8.0056152,61.0759277-15.9577637,91.637207-23.8544922
		c16.4418945-4.2749023,32.9138184-8.5244141,49.4182129-12.748291c9.730957-2.4941406,13.8205566-0.1413574,16.3540039,9.4089355
		c1.3754883,5.1687012,2.6748047,10.3583984,4.1914063,16.2194824L2127.5241699,3232.6032715z"/>
</g>
</svg>
