<?xml version="1.0" encoding="utf-8"?>
<!-- Generator: Adobe Illustrator 19.0.0, SVG Export Plug-In . SVG Version: 6.00 Build 0)  -->
<svg version="1.1" id="Layer_1" xmlns="http://www.w3.org/2000/svg" xmlns:xlink="http://www.w3.org/1999/xlink" x="0px" y="0px"
	 width="300px" height="300px" viewBox="-155 247 300 300" style="enable-background:new -155 247 300 300;" xml:space="preserve">
<style type="text/css">
	.st0{fill:none;stroke:#E0AE2B;stroke-width:24;stroke-linecap:round;stroke-linejoin:round;stroke-miterlimit:10;}
	.st1{fill:#ffce31;}
</style>
<g>
	<path id="Path_113" class="st0" d="M127,382.7502441c0,59.4678345-59.0902023,107.6899719-132,107.6899719
		c-15.6666622,0.0336304-31.251358-2.2558594-46.2458191-6.7955933l-75.8599243,35.3063049l29.7058868-59.296875
		C-121.7158508,441.467041-136.3186951,413.107666-137,382.7502441c0-59.4930115,59.0902023-107.7011719,132-107.7011719
		S127,323.2572327,127,382.7502441z"/>
	<path id="Path_114" class="st0" d="M-33.695652,362.5596008c-0.0532455-19.1565857,15.2813454-34.8074646,34.4347839-35.1465454
		c18.8213634-0.036438,34.1093636,15.1885071,34.146843,34.0116272
		c0.0378304,18.8203125-15.1892185,34.1097107-34.010582,34.1461487c-0.0455375,0-0.0907248,0-0.1362623,0v14.3366089"/>
	<path id="Path_115" class="st1" d="M17.956522,441.4838562c0,6.3388367-5.1390858,11.4782715-11.478261,11.4782715l0,0
		C0.1390859,452.9621277-5,447.8226929-5,441.4838562l0,0c0-6.3388062,5.1390858-11.478241,11.478261-11.478241l0,0
		C12.8174362,430.0056152,17.956522,435.14505,17.956522,441.4838562z"/>
</g>
</svg>
