<?xml version="1.0" encoding="utf-8"?>
<!-- Generator: Adobe Illustrator 19.0.0, SVG Export Plug-In . SVG Version: 6.00 Build 0)  -->
<svg version="1.1" id="Layer_1" xmlns="http://www.w3.org/2000/svg" xmlns:xlink="http://www.w3.org/1999/xlink" x="0px" y="0px"
	 width="300px" height="300px" viewBox="-155 247 300 300" style="enable-background:new -155 247 300 300;" xml:space="preserve">
<style type="text/css">
	.st0{fill:#FFCE31;}
</style>
<g>
	<path class="st0" d="M-110.789299,344.3352966c4.2076797-5.9259338,8.9435272-11.5410461,14.1869583-16.7844849
		c14.7143631-14.714447,32.3464966-25.4483948,51.5905418-31.6705017c4.8001022-1.5519714,6.6135521-7.4396362,3.5126228-11.4189148
		c-9.5097504-12.2034912-24.5052261-19.921051-41.2838364-19.4401245
		c-26.1182022,0.7485657-47.5823898,21.7240295-48.8940659,47.8200378
		c-0.5886688,11.7112122,2.8253174,22.596283,8.9884109,31.4215393
		C-119.8215942,348.3684387-113.688446,348.418335-110.789299,344.3352966z"/>
	<path class="st0" d="M121.6770782,312.8413696c-1.3116074-26.0959473-22.7757339-47.0714722-48.8939438-47.8200989
		c-16.7786674-0.4809875-31.7742691,7.2365723-41.2840195,19.4401245
		c-3.1008644,3.9792786-1.2874165,9.8669434,3.5126858,11.4189148
		c19.2440453,6.2221069,36.8761787,16.9560547,51.5905418,31.6705017
		c5.2434387,5.2434387,9.9792786,10.858551,14.1869659,16.7844849c2.8991394,4.0830383,9.0322876,4.0331421,11.8993607-0.0724487
		C118.8516998,335.4375916,122.2657471,324.5525818,121.6770782,312.8413696z"/>
	<path class="st0" d="M106.3935471,414.0322266c0-29.7542114-11.586998-57.7276306-32.6264877-78.7671204
		c-21.0394249-21.0394287-49.0128326-32.6264038-78.7670593-32.6264038s-57.7276344,11.5869751-78.7670593,32.6264038
		c-21.0394897,21.0394897-32.6264877,49.0129089-32.6264877,78.7671204c0,29.7542419,11.586998,57.7276001,32.6264877,78.7670898
		c0.706871,0.7068481,1.4228745,1.401123,2.145195,2.0865479l-6.8658524,10.1322327
		c-4.7594681,7.0238342-2.9237671,16.5761414,4.1001053,21.3354797c7.0237503,4.7592773,16.5757599,2.923645,21.3351707-4.0999756
		l6.4146996-9.4664917c15.7438622,8.2561646,33.3529282,12.6386108,51.6377411,12.6386108
		c18.2846241,0,35.8935661-4.3823853,51.6373024-12.6383667l6.4150772,9.4666748
		c4.7596588,7.0238647,14.3122292,8.8591309,21.3358574,4.0991821l0.0003128-0.0001831
		c7.0232468-4.7596436,8.8584442-14.3116455,4.0989761-21.3350525l-6.8658447-10.1319275
		c0.7223816-0.6854858,1.438446-1.3798218,2.1453781-2.086731
		C94.8065491,471.7598267,106.3935471,443.7864685,106.3935471,414.0322266z M-85.6680222,414.0322266
		c0-44.5517273,36.116291-80.6680603,80.6680222-80.6680603s80.6680908,36.116333,80.6680908,80.6680603
		s-36.1163597,80.6680298-80.6680908,80.6680298S-85.6680222,458.5839233-85.6680222,414.0322266z"/>
	<path class="st0" d="M40.1392097,432.8614502l-31.129282-19.3580627c-0.7306299-2.8485107-2.2995334-5.3540649-4.436976-7.2424622
		L6.390275,367.165863c0.2349792-5.0539856-3.6716526-9.3414307-8.7256136-9.576416
		c-5.0539608-0.2348938-9.3414726,3.6716614-9.5763893,8.7256165l-1.8251371,39.2622986
		c-3.4833059,2.6442871-5.7428961,6.8167725-5.7428961,11.5274353c0,7.9969177,6.4828405,14.4797363,14.4797611,14.4797363
		c2.2049544,0,4.2865744-0.5072632,6.1572194-1.388855l29.3066444,18.2245483
		c4.2964535,2.6717834,9.9452686,1.3547363,12.6170559-2.9417114S44.4356613,435.5331726,40.1392097,432.8614502z"/>
</g>
</svg>
