<svg xmlns="http://www.w3.org/2000/svg" width="20.746" height="21.756" viewBox="0 0 20.746 21.756">
  <g id="Group_3144" data-name="Group 3144" transform="translate(-3877.798 -2147.035)">
    <path id="Path_1881" data-name="Path 1881" d="M4041.319,2161.617c-.566-.707-1.129-1.38-1.657-2.078-.461-.61-.9-1.24-1.321-1.879a19.717,19.717,0,0,1-1.573-2.672,8.91,8.91,0,0,1-.712-2.177,4.485,4.485,0,0,1,1.027-3.788,5.313,5.313,0,0,1,4.83-1.955,5.216,5.216,0,0,1,4.173,2.665,4.509,4.509,0,0,1,.437,3.551,11.941,11.941,0,0,1-1.478,3.278,36.206,36.206,0,0,1-3.568,4.878Zm.015-12.4a3.159,3.159,0,1,0,3.169,3.161A3.164,3.164,0,0,0,4041.334,2149.214Z" transform="translate(-153.168)" fill="#fff"/>
    <path id="Path_1882" data-name="Path 1882" d="M3937,2543.089c.306-.342.606-.654.879-.988.567-.7,1.121-1.4,1.675-2.108a.279.279,0,0,1,.25-.121c1.394,0,2.789,0,4.184,0a1.462,1.462,0,0,1,1.449,1.083c.11.369.219.737.334,1.127-.293.068-.572.135-.853.2q-2.687.61-5.375,1.218c-1.184.267-2.369.528-3.553.8q-2.191.5-4.38,1.006a.226.226,0,0,1-.238-.064q-1.536-1.489-3.077-2.97a.177.177,0,0,1-.052-.209c.119-.383.224-.771.345-1.153a1.451,1.451,0,0,1,1.406-1.032c1.41,0,2.821,0,4.231,0a.255.255,0,0,1,.231.127,32.489,32.489,0,0,0,2.477,3.006C3936.951,2543.023,3936.967,2543.045,3937,2543.089Z" transform="translate(-48.833 -380.382)" fill="#fff"/>
    <path id="Path_1883" data-name="Path 1883" d="M4056.672,2683.932c.32-.073.621-.144.923-.212.792-.177,1.585-.352,2.377-.531.664-.15,1.326-.307,1.99-.459.756-.173,1.512-.343,2.267-.518a.23.23,0,0,1,.252.068q2.2,2.291,4.407,4.577c.031.032.058.069.1.124-.08,0-.135.009-.191.009q-4.413,0-8.827,0a.372.372,0,0,1-.237-.085q-1.494-1.429-2.978-2.869C4056.732,2684.008,4056.711,2683.978,4056.672,2683.932Z" transform="translate(-173.203 -518.2)" fill="#fff"/>
    <path id="Path_1884" data-name="Path 1884" d="M3879.076,2644.939l6.169,5.955c-.077.007-.12.014-.163.014q-2.907,0-5.814,0a1.46,1.46,0,0,1-1.406-1.89c.226-.768.465-1.532.694-2.3.156-.525.3-1.053.458-1.58C3879.03,2645.079,3879.05,2645.021,3879.076,2644.939Z" transform="translate(0 -482.119)" fill="#fff"/>
    <path id="Path_1885" data-name="Path 1885" d="M4338.962,2638.37c.068.227.132.437.194.648q.253.848.5,1.7c.192.646.387,1.292.576,1.94a1.467,1.467,0,0,1-1.185,1.877.256.256,0,0,1-.258-.065q-2.347-2.444-4.7-4.882c-.021-.022-.039-.047-.076-.092Z" transform="translate(-441.755 -475.758)" fill="#fff"/>
  </g>
</svg>
