<svg xmlns="http://www.w3.org/2000/svg" width="76" height="76" viewBox="0 0 76 76">
  <g id="Group_901" data-name="Group 901" transform="translate(-1306.5 -1744)">
    <g id="Ellipse_292" data-name="Ellipse 292" transform="translate(1306.5 1744)" fill="#ffd401" stroke="#333" stroke-width="4">
      <circle cx="38" cy="38" r="38" stroke="none"/>
      <circle cx="38" cy="38" r="36" fill="none"/>
    </g>
    <g id="Group_899" data-name="Group 899" transform="translate(1320.708 1768.048)">
      <path id="Path_1087" data-name="Path 1087" d="M-3848.15,3858.3a22.845,22.845,0,0,1-12.911-4.287,33.649,33.649,0,0,1-8.6-8.833.929.929,0,0,0-.545-.395,13.9,13.9,0,0,1-1.4-.522,1.833,1.833,0,0,1-.506-.35.675.675,0,0,1-.137-.973c.389-.649.761-1.312,1.192-1.932a3.825,3.825,0,0,1,.868-.865c.32-.236.544-.144.63.242a8.028,8.028,0,0,1,.23,1.568,4.558,4.558,0,0,0,.844,2.616,32.789,32.789,0,0,0,8.545,8.6,21.665,21.665,0,0,0,8.359,3.449,19.852,19.852,0,0,0,5.174.218,21.7,21.7,0,0,0,14.042-7.046,24.369,24.369,0,0,0,3.3-4.224,11.2,11.2,0,0,0,.781-1.55,3.043,3.043,0,0,0,.169-.944c.055-.793.073-1.588.128-2.381a1.938,1.938,0,0,1,.174-.559.3.3,0,0,1,.479-.169,1.893,1.893,0,0,1,.594.512c.451.7.869,1.424,1.279,2.15.221.393.4.809.6,1.216a.971.971,0,0,1-.229,1.28,4.712,4.712,0,0,1-1.777.958,2.279,2.279,0,0,1-.565.16,1.168,1.168,0,0,0-.9.642,26.819,26.819,0,0,1-9.439,8.736,20.707,20.707,0,0,1-7.35,2.408C-3846.13,3858.147-3847.142,3858.207-3848.15,3858.3Z" transform="translate(3872.401 -3824.319)" fill="#fff"/>
      <path id="Path_1088" data-name="Path 1088" d="M-3697.34,3584.358a9.606,9.606,0,0,1,1.442-5.109,4.238,4.238,0,0,1,.824-.915,1.389,1.389,0,0,1,2.232.381,4.4,4.4,0,0,1,.622,1.949,9.633,9.633,0,0,1-1.172,5.857,4.876,4.876,0,0,1-.983,1.2,1.4,1.4,0,0,1-2.306-.39,5.051,5.051,0,0,1-.619-2.163C-3697.324,3584.894-3697.327,3584.618-3697.34,3584.358Z" transform="translate(3707.681 -3577.827)" fill="#fff"/>
      <path id="Path_1089" data-name="Path 1089" d="M-3418.475,3580.446a9,9,0,0,1-1.413,4.643,4.216,4.216,0,0,1-.962,1.023,1.326,1.326,0,0,1-2.025-.344,4.093,4.093,0,0,1-.7-1.982,9.627,9.627,0,0,1,1.146-5.919,4.952,4.952,0,0,1,.975-1.208,1.408,1.408,0,0,1,2.344.4A6.51,6.51,0,0,1-3418.475,3580.446Z" transform="translate(3450.147 -3576.193)" fill="#fff"/>
    </g>
    <g id="Group_900" data-name="Group 900" transform="translate(1319.218 1768.048)">
      <path id="Path_1087-2" data-name="Path 1087" d="M-3848.15,3858.3a22.845,22.845,0,0,1-12.911-4.287,33.649,33.649,0,0,1-8.6-8.833.929.929,0,0,0-.545-.395,13.9,13.9,0,0,1-1.4-.522,1.833,1.833,0,0,1-.506-.35.675.675,0,0,1-.137-.973c.389-.649.761-1.312,1.192-1.932a3.825,3.825,0,0,1,.868-.865c.32-.236.544-.144.63.242a8.028,8.028,0,0,1,.23,1.568,4.558,4.558,0,0,0,.844,2.616,32.789,32.789,0,0,0,8.545,8.6,21.665,21.665,0,0,0,8.359,3.449,19.852,19.852,0,0,0,5.174.218,21.7,21.7,0,0,0,14.042-7.046,24.369,24.369,0,0,0,3.3-4.224,11.2,11.2,0,0,0,.781-1.55,3.043,3.043,0,0,0,.169-.944c.055-.793.073-1.588.128-2.381a1.938,1.938,0,0,1,.174-.559.3.3,0,0,1,.479-.169,1.893,1.893,0,0,1,.594.512c.451.7.869,1.424,1.279,2.15.221.393.4.809.6,1.216a.971.971,0,0,1-.229,1.28,4.712,4.712,0,0,1-1.777.958,2.279,2.279,0,0,1-.565.16,1.168,1.168,0,0,0-.9.642,26.819,26.819,0,0,1-9.439,8.736,20.707,20.707,0,0,1-7.35,2.408C-3846.13,3858.147-3847.142,3858.207-3848.15,3858.3Z" transform="translate(3872.401 -3824.319)" fill="#333"/>
      <path id="Path_1088-2" data-name="Path 1088" d="M-3697.34,3584.358a9.606,9.606,0,0,1,1.442-5.109,4.238,4.238,0,0,1,.824-.915,1.389,1.389,0,0,1,2.232.381,4.4,4.4,0,0,1,.622,1.949,9.633,9.633,0,0,1-1.172,5.857,4.876,4.876,0,0,1-.983,1.2,1.4,1.4,0,0,1-2.306-.39,5.051,5.051,0,0,1-.619-2.163C-3697.324,3584.894-3697.327,3584.618-3697.34,3584.358Z" transform="translate(3707.681 -3577.827)" fill="#333"/>
      <path id="Path_1089-2" data-name="Path 1089" d="M-3418.475,3580.446a9,9,0,0,1-1.413,4.643,4.216,4.216,0,0,1-.962,1.023,1.326,1.326,0,0,1-2.025-.344,4.093,4.093,0,0,1-.7-1.982,9.627,9.627,0,0,1,1.146-5.919,4.952,4.952,0,0,1,.975-1.208,1.408,1.408,0,0,1,2.344.4A6.51,6.51,0,0,1-3418.475,3580.446Z" transform="translate(3450.147 -3576.193)" fill="#333"/>
    </g>
  </g>
</svg>
