<?xml version="1.0" encoding="utf-8"?>
<!-- Generator: Adobe Illustrator 19.0.0, SVG Export Plug-In . SVG Version: 6.00 Build 0)  -->
<svg version="1.1" id="Layer_1" focusable="false" xmlns="http://www.w3.org/2000/svg" xmlns:xlink="http://www.w3.org/1999/xlink"
	 x="0px" y="0px" width="100px" height="100px" viewBox="-255 347 100 100" style="enable-background:new -255 347 100 100;"
	 xml:space="preserve">
<style type="text/css">
	.st0{fill:#ffce31;}
</style>
<g>
	<path class="st0" d="M-160.1388092,387.9881897c-4.8345795-26.4519958-29.4449615-39.4443665-49.9668274-36.6044006
		c-30.0477753,4.1582642-47.7761688,36.6596069-34.3333435,63.9755554c1.4105988,2.8664246,1.5080261,5.1369934,0.4494934,8.0123291
		c-2.306488,6.2650146-4.2793427,12.6528015-6.6008453,19.6283264c7.7593994-2.4958191,14.7940826-4.7084045,21.7885437-7.0415955
		c1.8732452-0.6248474,3.4223175-0.6278076,5.2829132,0.3032227c9.0668488,4.5369873,18.7213135,5.4914856,28.5288544,3.4657288
		C-171.366806,434.8479614-155.7860718,411.8040466-160.1388092,387.9881897z M-194.588089,432.0664673
		c-9.6953125,2.5458374-18.9951324,1.3855591-27.7221527-3.5109253c-1.9311676-1.0835266-3.557785-1.203125-5.543335-0.5064087
		c-3.5253601,1.2369995-7.1077423,2.311554-11.4242706,3.6974182c1.4374084-4.251709,2.5679016-7.8992004,3.9190979-11.4630432
		c0.6662292-1.7573853,0.4083252-3.056366-0.5867157-4.6420593c-14.2616882-22.7281189-0.4845581-52.7796631,26.0228577-56.8799744
		c19.7258911-3.0513306,38.5193329,10.1891174,42.5520477,29.9789124
		C-163.5139008,407.6663818-175.7063141,427.1084595-194.588089,432.0664673z"/>
	<path id="XMLID_1_" class="st0" d="M-226.5290222,385.5777588c-0.0270233-4.1019287,1.2593231-7.1174622,3.6850433-9.6487122
		c3.2775726-3.4202271,7.1950226-2.6635437,8.8765869,1.6932068c0.4259186,1.1035767,0.7247162,2.26828,1.2552338,3.3171997
		c1.770401,3.5002747,2.0908051,6.6997986-1.4331818,9.4053955c-1.2171936,0.9345398-1.0695648,2.1206055-0.3582458,3.4180603
		c3.3618469,6.131958,8.5242004,10.2550049,14.6669464,13.298584c1.0779266,0.5341187,2.1174011,0.3727417,2.9668427-0.5396729
		c0.6719208-0.7217407,1.4255066-1.394165,1.9664459-2.2060852c1.585968-2.380249,3.4264679-2.9949646,5.9412384-1.3106995
		c1.301178,0.87146,2.801178,1.4415588,4.1907654,2.1862793c4.4984589,2.4109192,4.8138428,7.2362671,0.5815277,10.3414917
		c-3.3491516,2.4572449-7.1647949,3.3793945-11.2117004,2.2438965
		c-14.4280396-4.0482178-23.665451-13.9350891-29.9936676-27.0024719c-0.466217-0.962738-0.7056427-2.0535889-0.9274445-3.1107178
		C-226.50354,386.8012695-226.5003662,385.9004211-226.5290222,385.5777588z"/>
</g>
</svg>
