<?xml version="1.0" encoding="utf-8"?>
<!-- Generator: Adobe Illustrator 19.0.0, SVG Export Plug-In . SVG Version: 6.00 Build 0)  -->
<svg version="1.1" id="Layer_1" focusable="false" xmlns="http://www.w3.org/2000/svg" xmlns:xlink="http://www.w3.org/1999/xlink"
	 x="0px" y="0px" width="100px" height="100px" viewBox="-255 347 100 100" style="enable-background:new -255 347 100 100;"
	 xml:space="preserve">
<style type="text/css">
	.st0{fill:#ffce31;}
</style>
<path id="XMLID_2032_" class="st0" d="M-198.4809723,378.4266052c3.3790588-9.6798096,7.8614197-17.6136169,18.0445251-20.5345459
	c3.1233215-0.895874,6.3161163-1.2993164,9.52742-0.8571472c7.5361633,1.0375977,11.3420868,5.7633057,11.8470612,14.2108154
	c0.353714,5.9173889-0.8110199,11.519165-3.3880768,16.7763672c-7.9590759,16.2363281-18.5869446,30.4830627-32.2562256,42.3732605
	c-3.2217712,2.8024292-6.8558807,5.010376-11.0544586,6.1600342c-5.3321075,1.4600525-9.1302185,0.2579956-12.4933624-4.1399841
	c-2.6132965-3.4174194-4.4765015-7.2351685-5.631012-11.3733215c-2.6421204-9.4703369-5.2083893-18.961853-7.8603821-28.4294128
	c-0.9961853-3.556366-2.1796112-7.0686951-4.357666-10.1108704c-2.1872101-3.0550842-3.6929474-3.3190002-6.8468018-1.4026489
	c-0.646347,0.3927002-1.9029999,1.2282104-1.9029999,1.2282104c-2.4578857,1.5697632-3.0195923,1.4248047-4.4618683-0.6231995
	c-2.266098-3.2177734-2.4217224-3.1339417,0.611496-5.8214111c4.4610291-3.9524841,8.901535-7.9301758,13.4404602-11.791748
	c1.7188721-1.4624023,3.5995941-2.783844,5.5565491-3.9083862c7.3927307-4.2479858,13.7653046-1.9514465,16.7285309,6.0555725
	c2.3845825,6.4432678,2.6066742,13.3392944,3.9112701,20.010376c0.8894501,4.5484619,1.7247314,9.1082458,3.0546417,13.5493774
	c0.5938721,1.9833679,1.3220978,3.9609985,2.2697296,5.7964478c1.761322,3.4113464,3.763504,3.8028259,6.3734131,1.0397034
	c5.2588348-5.567627,9.1136017-12.0392151,11.5329285-19.3282471c0.2656097-0.8001709,0.3957214-1.6620789,0.4711609-2.5058289
	c0.4613953-5.1601868-1.8330688-7.5655518-7.0131989-7.5229797
	C-194.2802887,377.2926636-196.0752106,377.7924805-198.4809723,378.4266052z"/>
</svg>
