<?xml version="1.0" encoding="utf-8"?>
<!-- Generator: Adobe Illustrator 19.0.0, SVG Export Plug-In . SVG Version: 6.00 Build 0)  -->
<svg version="1.1" id="Layer_1" focusable="false" xmlns="http://www.w3.org/2000/svg" xmlns:xlink="http://www.w3.org/1999/xlink"
	 x="0px" y="0px" width="100px" height="100px" viewBox="-255 347 100 100" style="enable-background:new -255 347 100 100;"
	 xml:space="preserve">
<style type="text/css">
	.st0{fill:#ffce31;}
</style>
<path class="st0" d="M-163.8543854,405.875946c0.614624-2.8623962,0.9458771-5.8299255,0.9458771-8.875946
	c0-23.246521-18.8450012-42.0914917-42.0914917-42.0914917c-3.0460358,0-6.0135803,0.3312073-8.8759918,0.9458618
	C-217.7746582,352.8153687-222.6738434,351-228,351c-12.7025452,0-23,10.2974548-23,23
	c0,5.3261414,1.8153687,10.2253723,4.8544006,14.124054c-0.6146393,2.8623657-0.9458923,5.8299255-0.9458923,8.875946
	c0,23.24646,18.8450165,42.0914917,42.0914917,42.0914917c3.0460358,0,6.0135498-0.3312683,8.8759613-0.9458923
	C-192.2253723,441.1846313-187.3261414,443-182,443c12.7025452,0,23-10.2974548,23-23
	C-159,414.6738586-160.8153687,409.7746277-163.8543854,405.875946z M-191.1298676,421.740509
	c-3.2671967,1.2912598-6.5226135,2.3066101-10.0615845,2.240509c-2.6189423-0.0489197-5.2813263,0.2216797-7.8487701-0.1593933
	c-5.2428894-0.7781982-10.2529297-2.3822327-14.4195709-5.8632813c-3.2742157-2.7354736-4.2374573-6.2568054-2.5613556-10.1118469
	c0.9815826-2.2576904,4.1363068-3.2771301,6.460968-2.5166321c1.8954163,0.6200867,3.3333282,1.7621765,4.6386719,3.152771
	c2.4807739,2.6428223,5.1602936,4.7111816,8.9807587,5.3132629c3.0468597,0.4801636,5.7223206,0.0568237,8.3642578-1.295105
	c1.5256195-0.7806702,2.3784027-2.2051392,2.2630615-3.7644653c-0.1342773-1.8154297-1.1090698-3.2863159-3.1635742-3.785553
	c-3.6584015-0.8888855-7.305481-1.8352356-10.9249268-2.8706665c-4.0896606-1.1699524-8.3238831-1.9361267-11.9302826-4.4687195
	c-3.2788391-2.3025513-5.120224-5.3309937-5.3669586-9.3458862c-0.2302246-3.7464905,0.0468597-7.3494568,2.3807983-10.5209961
	c2.1530609-2.9257813,5.1295319-4.7230225,8.4412842-5.8809204c3.5587769-1.2442627,7.2590179-2.0030212,11.0914307-1.8572998
	c5.736557,0.2528381,11.3556824,1.0438232,16.4127502,4.0334167c2.2785187,1.3470154,4.0942383,3.0522461,5.0145264,5.7539673
	c0.9708252,2.8502197-1.980484,7.5178528-5.0714569,7.5723572c-2.636322,0.0465088-4.759903-0.7895508-6.4002228-2.5860901
	c-3.5480042-3.8858032-8.0552979-4.2973328-12.7767944-3.7194824c-1.4051208,0.1719666-3.0843201,0.9458618-3.958313,2.0048828
	c-1.6499023,1.9991455-0.7578583,4.769928,1.9498749,5.7677917c2.3095551,0.8511353,4.7872314,1.2414246,7.1834259,1.8629761
	c5.5055847,1.4280701,11.2063293,2.3121643,16.0150299,5.7003479c3.3052673,2.3288574,5.3188934,5.4483337,5.6267548,9.5195313
	C-180.2300262,413.3227844-184.7551422,419.2210388-191.1298676,421.740509z"/>
</svg>
