<?xml version="1.0" encoding="utf-8"?>
<!-- Generator: Adobe Illustrator 19.0.0, SVG Export Plug-In . SVG Version: 6.00 Build 0)  -->
<svg version="1.1" id="Layer_1" xmlns="http://www.w3.org/2000/svg" xmlns:xlink="http://www.w3.org/1999/xlink" x="0px" y="0px"
	 width="157px" height="157px" viewBox="-227 318 157 157" style="enable-background:new -227 318 157 157;" xml:space="preserve">
<style type="text/css">
	.st0{fill:none;stroke:#18D02D;stroke-width:5;stroke-miterlimit:10;}
	.st1{fill:#18D02D;}
</style>
<g id="tick_blue" transform="translate(2.687 2.688)">
	<g id="Group_21" transform="translate(-0.187 -0.187)">
		<circle id="Oval" class="st0" cx="-151" cy="393.9989929" r="76"/>
		<path id="Fill_4" class="st1" d="M-124.9689941,370.5620117l-38.4100037,36.9119873l-15.5279999-14.9179993
			c-1.9374695-1.8330688-4.9695282-1.8330688-6.9069977,0c-1.8335876,1.7296143-1.9178772,4.6181335-0.1882782,6.4517212
			c0.0609131,0.0645752,0.123703,0.1273499,0.1882782,0.1882629l18.9810028,18.2390137
			c1.9383392,1.8328247,4.9706573,1.8328247,6.9089966,0c0.0027161-0.0042114,0.005722-0.0082092,0.0090027-0.0119934
			l41.8539886-40.2229919c1.8330383-1.7310181,1.9157562-4.6202087,0.1847687-6.4532471
			c-0.0598145-0.0633545-0.1214294-0.1249695-0.1847687-0.1847534
			C-119.9984131,368.7278137-123.0315857,368.7278137-124.9689941,370.5620117z"/>
	</g>
</g>
</svg>
