<?xml version="1.0" encoding="utf-8"?>
<!-- Generator: Adobe Illustrator 19.0.0, SVG Export Plug-In . SVG Version: 6.00 Build 0)  -->
<svg version="1.1" id="Layer_1" xmlns="http://www.w3.org/2000/svg" xmlns:xlink="http://www.w3.org/1999/xlink" x="0px" y="0px"
	 width="500px" height="500px" viewBox="-99 147 500 500" style="enable-background:new -99 147 500 500;" xml:space="preserve">
<style type="text/css">
	.st0{opacity:0.102;fill:#F8B731;enable-background:new    ;}
	.st1{fill:#F8B731;}
	.st2{fill:#0B0B0B;}
</style>
<g>
	<path id="Path_25" class="st0" d="M-71.8895187,502.6618958
		c-36.591629-112.6445923,52.1806488-294.8563843,162.6072693-330.7332153s245.0198975,73.7614136,281.6220398,186.3954926
		c36.5916443,112.6340942-31.934906,206.3259277-142.361496,242.2132568
		C119.551651,636.4142456-35.2873802,615.2960205-71.8895187,502.6618958z"/>
	<path class="st1" d="M-26.5205269,408.3709106l244.4732819,0.1892395v42.583374
		c-7.726181,2.1128235-4.0575714,3.3111877-12.7088013,5.6658325v-34.9727783l-218.0991364,0.8829651l-0.4940481,165.1931763
		H92.6624222c0.8724823,8.9665527,2.1338959,6.317627,2.922287,14.4011841l-120.8963776-0.189209
		c0-31.8928833-0.5886574-94.5327454-0.8935013-94.5327454 M18.6172047,555.0002441
		c16.9135151-19.2261353,32.5130463-36.9490356,48.7958527-55.4393311
		c5.6133041,6.2440491,10.8692169,12.0990906,16.5140533,18.3851929
		c11.1214981-15.6520996,21.2969437-29.9797058,32.1346283-45.2323608
		c8.5355835,12.8664551,16.4089355,24.744812,25.4280853,38.3365784
		c-8.5986786,7.9994812-17.4075851,15.7046814-25.6278152,24.0090027
		c-5.2559052,5.3084717-9.5657578,11.5419922-14.4432373,17.2288818c-1.030159,1.1983032-2.6910248,2.5858765-4.0680695,2.5964355
		C71.754425,555.0422974,46.1581573,555.0002441,18.6172047,555.0002441z M38.232254,491.2145386
		c-10.1649303-0.1051331-19.268158-9.1242371-19.1420212-18.9948425
		c0.1156311-9.7759705,9.5342159-19.2786865,19.1315079-19.2996826c10.7220497-0.0315247,19.4888992,9.208313,19.2261047,20.2457275
		C57.2165833,482.8576355,48.2184792,491.3091431,38.232254,491.2145386z"/>
	<g id="Path_1253">
		<path class="st2" d="M149.6898041,629c-8.6460724,0-16.9477386-3.2562256-23.774765-9.4082642
			c-8.0573502-7.2484741-12.3231506-16.968811-12.0064621-27.3666382
			c0.2935867-9.6413574,4.4967728-19.4396973,11.8355408-27.5904541l63.9747696-71.0594788
			c9.4205933-10.4584351,21.5892487-17.0118713,34.2670746-18.4521179
			c13.3265991-1.5192871,26.324707,2.760376,36.6281433,12.0352173
			c10.2982788,9.2696838,15.9073181,21.7565613,15.7913208,35.1611938
			c-0.1108704,12.7619629-5.3595886,25.5465698-14.7791748,35.9988403l-46.0610352,51.1691284
			c-2.3302612,2.5889893-6.3173523,2.7963257-8.9073334,0.4671021c-2.5889435-2.3302612-2.7983551-6.3183594-0.4670715-8.9073486
			l46.0631104-51.1711426c7.3572235-8.1630859,11.4541779-17.9871216,11.5373383-27.6654053
			c0.0852051-9.8815308-3.9316711-18.7601013-11.616394-25.6769409
			c-15.4043274-13.8686218-37.7296143-11.5630188-53.0826111,5.4827576l-63.9737396,71.0584412
			c-5.3441772,5.9354858-8.3986664,12.8728638-8.6014099,19.5341187
			c-0.2047958,6.7228394,2.5057983,12.8112793,7.8381805,17.6083374c5.3364868,4.807251,11.6759186,6.8654785,18.3443451,5.9631958
			c6.6006775-0.8982544,13.1777496-4.6594849,18.5188599-10.5919189l48.6274109-54.0095825
			c2.6125641-2.9020386,10.4502258-12.9868164,1.6116791-20.9476318
			c-8.8323822-7.9547119-18.0487061,0.8909912-20.6622925,3.7930298l-38.387619,42.6344604
			c-2.3312836,2.5879517-6.3194122,2.7963257-8.9073334,0.4671021c-2.5889435-2.3312988-2.7978363-6.3184204-0.4670715-8.9073486
			l38.3886566-42.635437c11.71492-13.0053101,27.175705-14.9034119,38.4779663-4.7241821
			c11.3032837,10.1802368,11.0291901,25.757019-0.6795807,38.7602539l-48.6274109,54.0095825
			c-7.3356781,8.1477051-16.6382294,13.3512573-26.1932983,14.6498413C152.8233337,628.8932495,151.2501526,629,149.6898041,629z"/>
	</g>
</g>
</svg>
