<?xml version="1.0" encoding="utf-8"?>
<!-- Generator: Adobe Illustrator 19.0.0, SVG Export Plug-In . SVG Version: 6.00 Build 0)  -->
<svg version="1.1" id="Layer_1" xmlns="http://www.w3.org/2000/svg" xmlns:xlink="http://www.w3.org/1999/xlink" x="0px" y="0px"
	 width="500px" height="500px" viewBox="-99 147 500 500" style="enable-background:new -99 147 500 500;" xml:space="preserve">
<style type="text/css">
	.st0{opacity:0.102;fill:#F8B731;enable-background:new    ;}
	.st1{fill:#F8B731;}
</style>
<g>
	<path id="Rectangle_519" class="st0" d="M219.80336,195.3827515l114.4163971,99.4647522
		c51.6175537,44.8748474,57.0735474,122.8746643,12.1987,174.492218l-78.5284729,90.328186
		c-44.8648834,51.6175537-122.8647156,57.0735474-174.482254,12.1987305l-114.4263611-99.4647827
		c-51.6175385-44.8648682-57.0635681-122.8646851-12.198698-174.4822388l78.5284882-90.3282013
		C90.185997,155.9638977,168.1758728,150.5178833,219.80336,195.3827515z"/>
	<path id="Path_17" d="M137.4945831,427.5170288c0,49.8720398-64.2251816,96.5522461-64.2251816,96.5522461
		S9.0242729,477.3890686,9.0242729,427.5170288c0-37.5037537,26.741375-67.8259277,64.2451324-67.8259277
		S137.4945831,390.0132751,137.4945831,427.5170288z M109.1672897,423.926239
		c0-19.9487915-16.3480453-35.9078369-35.8978882-35.9078369c-19.9587746,0-35.91782,16.3580322-35.91782,35.9078369
		c0,19.948822,16.368,35.9078674,35.91782,35.9078674C93.2082443,459.8341064,109.1672897,443.875061,109.1672897,423.926239z"/>
	<path id="Path_18" class="st1" d="M206.5174713,629c-86.9768066,0-174.3525848,0-261.319397,0
		c-18.3628807,0-21.9536629-3.9897461-19.1608315-21.9436646c5.1866913-37.1047974,10.7723579-74.6085815,16.3580246-111.7133484
		c2.393856-15.5600586,5.1866913-18.3529053,21.1457329-18.3529053c17.953928,0,35.9078598,0,53.8617859,0
		c0.3989697,0,0.3989697,0,0.8079243,0l9.964426,14.3631592c-19.1508522,0-38.301712,0-57.4425888,0
		c-6.7925701,0-12.3782368,3.191803-13.9741421,9.9743958c-2.393856,10.7723389-3.5808105,21.145752-5.5756912,33.5139771
		c27.9183578-11.9692383,54.2507858-23.5395813,82.5880585-35.5088501l8.3685226,12.7672119
		c-10.3634033,4.3887329-20.7467537,9.1764526-32.31707,13.9641724
		c32.7160492,20.7467651,63.4471817,40.6955566,94.9663086,60.6444092
		c10.7623749-16.757019,21.1357651-32.7160645,31.9081116-49.4730835
		c-13.166214-4.3887329-25.135498-9.1764526-37.1047821-12.7672119l7.5805511-13.1662292
		c12.7672424,4.3887634,24.7365265,8.7774963,37.5037537,13.1662292
		c7.1815796-11.1713257,13.5651855-21.5447083,21.1557159-33.1150208c-17.1659546,0-31.9280701-0.3989868-47.0791855,0
		l9.166481-14.7621155c20.3577423,0,39.9075775,0,59.4574127,0c15.5500946,0,18.7419128,2.7928162,20.7368011,17.9539185
		c5.1966553,37.90271,11.1713104,75.4064941,16.7669678,113.3092041C227.2642212,623.8132935,222.8854828,629,206.5174713,629z
		 M151.8577423,526.0641479c16.7569885,5.9846191,31.9180756,11.1713257,48.6750946,17.1560059
		c-2.3938599-15.1611328-4.3887329-29.524292-6.7826233-43.4884338c-0.7979279-3.191803-2.3838654-8.378479-3.9897614-8.378479
		c-5.5856323,0-13.5651703-0.7979431-16.3580017,2.3938293
		C165.0239563,503.7214966,159.0393066,514.8928223,151.8577423,526.0641479z M34.1597672,613.4399414
		c-29.1252556-19.1508789-56.6546097-37.5037842-85.7798691-57.0535889
		c-1.9948807,13.9641724-3.9897614,25.9334717-5.5856667,38.3016968
		c-1.9948807,13.9641724,2.7928352,19.9487915,16.7569962,19.9487915c22.7416439,0,45.0843048,0,67.8259506,0
		C28.9730816,614.6368408,30.5689831,613.8388672,34.1597672,613.4399414z M207.714386,597.0819092
		c-1.5958862-9.9744263-2.7928162-20.3477783-4.7877045-30.3222046c-0.7979431-2.7928467-3.9897614-6.383606-6.7825775-7.5805054
		c-9.974411-4.3887329-19.948822-7.5805664-29.923233-10.7723999c-7.9795227-2.7928467-17.1559601-8.7774658-23.1406097-6.383606
		c-5.9846344,1.994873-9.5754395,12.3682861-13.9641724,19.1508789
		c-7.5805435,11.5703125-15.1610794,23.5395508-23.1406097,35.5088501
		c-33.1150284-21.5446777-65.8310699-42.2914429-98.14814-63.038208c-2.3938508-1.5959473-6.7825899-3.5908203-9.1764488-2.7928467
		c-12.3682575,4.7877197-24.7365208,10.3733521-38.7006836,16.3580322
		c33.9129677,22.3426514,66.2400131,43.8873901,98.5471039,65.4320679c2.3938522,1.1968994,5.1866875,1.994873,7.5805511,1.994873
		c42.2914658,0,84.9819183,0.3989868,127.283371,0C204.5225983,614.237915,209.7092743,607.4552612,207.714386,597.0819092z"/>
</g>
</svg>
