<?xml version="1.0" encoding="utf-8"?>
<!-- Generator: Adobe Illustrator 19.0.0, SVG Export Plug-In . SVG Version: 6.00 Build 0)  -->
<svg version="1.1" id="Layer_1" xmlns="http://www.w3.org/2000/svg" xmlns:xlink="http://www.w3.org/1999/xlink" x="0px" y="0px"
	 width="500px" height="500px" viewBox="-99 147 500 500" style="enable-background:new -99 147 500 500;" xml:space="preserve">
<style type="text/css">
	.st0{opacity:0.102;fill:#F8B731;enable-background:new    ;}
	.st1{fill:#F8B731;stroke:#F8B731;stroke-width:4;}
</style>
<g>
	<path id="Rectangle_520" class="st0" d="M89.2695999,165h155.3480225c70.0803528,0,126.7312927,56.6509247,126.7312927,126.7312927
		v122.643158c0,70.0803528-56.6509399,126.7312622-126.7312927,126.7312622H89.2695999
		c-70.0905685,0-126.7312775-56.6509094-126.7312775-126.7312622v-122.643158
		C-37.4616737,221.6509247,19.1790295,165,89.2695999,165z"/>
	<path class="st1" d="M-69.3488998,563.590332h39.2458191V629h-39.2458191V563.590332z M9.1427298,498.180603H48.388546V629
		H9.1427298V498.180603z M87.2255478,524.3444824h39.2458115V629H87.2255478V524.3444824z M165.7171783,433.179718h39.2458344V629
		h-39.2458344V433.179718z"/>
	<path d="M185.3400879,326.4801636c-8.3398895,0-15.1257935,6.7854004-15.1257935,15.1257935
		c0,2.2739258,0.5188141,4.4241028,1.4215088,6.3607788l-60.5911865,70.6912537
		c-1.3341141-0.386261-2.7390213-0.6046448-4.195961-0.6046448c-4.3666916,0-8.295105,1.8708801-11.0587082,4.8400879
		l-51.9715157-17.3242798c-0.7310257-7.6639099-7.2004051-13.6792908-15.0529919-13.6792908
		c-8.340395,0-15.1257925,6.7854004-15.1257925,15.1257935c0,1.3327942,0.1905699,2.6190796,0.5158167,3.8511963
		l-57.199234,47.6001892c-2.0182915-0.9996033-4.2816086-1.5766907-6.6822205-1.5766907
		c-8.3403969,0-15.1257935,6.7858887-15.1257935,15.1268005c0,8.3398743,6.7853966,15.1257935,15.1257935,15.1257935
		s15.1257896-6.7859192,15.1257896-15.1257935c0-1.4336853-0.2135849-2.8161316-0.587925-4.1313477l57.0134048-47.4454956
		c2.0811691,1.0804138,4.4378071,1.7011414,6.9401627,1.7011414c4.4170933,0,8.3853054-1.9147949,11.1532116-4.9438782
		l51.8699608,17.2904663c0.6664658,7.7287598,7.160675,13.8179016,15.0600433,13.8179016
		c8.3403931,0,15.1257935-6.7859192,15.1257935-15.1257935c0-2.3773499-0.5665283-4.6195984-1.5478897-6.6231689
		l60.4309387-70.5032959c1.4170685,0.4406738,2.9225464,0.6785889,4.4825897,0.6785889
		c8.3398895,0,15.1257935-6.7854004,15.1257935-15.1263123C200.4658813,333.265564,193.6799774,326.4801636,185.3400879,326.4801636
		z"/>
</g>
</svg>
