<?xml version="1.0" encoding="utf-8"?>
<!-- Generator: Adobe Illustrator 19.0.0, SVG Export Plug-In . SVG Version: 6.00 Build 0)  -->
<svg version="1.1" id="Layer_1" xmlns="http://www.w3.org/2000/svg" xmlns:xlink="http://www.w3.org/1999/xlink" x="0px" y="0px"
	 width="500px" height="500px" viewBox="-99 147 500 500" style="enable-background:new -99 147 500 500;" xml:space="preserve">
<style type="text/css">
	.st0{opacity:0.102;fill:#F8B731;enable-background:new    ;}
	.st1{fill:#F8B731;}
</style>
<g>
	<path id="Path_23" class="st0" d="M128.5762939,165c106.5256042,0,237.7394714,126.5901489,237.7394714,231.0355225
		c0,104.4359436-131.2138672,189.1098633-237.7394714,189.1098633c-106.5350418,0-167.6364441-84.6739197-167.6364441-189.1098633
		C-39.0601501,291.5901489,22.0412521,165,128.5762939,165z"/>
	<path id="Path_10" class="st1" d="M-64.315773,507.9696655c1.891098-5.2950745,6.0515137-7.1861572,11.7248116-7.1861572
		c33.6615562,0,67.3231125,0,100.6064606,0c8.3208351,0,11.7248077,3.0257568,11.7248077,11.3465576
		c0,1.5128784,0,2.647522,0,4.5386353c1.134655,0,1.891098,0,2.647541,0c4.916851,0,9.8337059,0,15.128788,0
		c3.782196,0,6.8079529,1.1347046,9.4554977,3.7822266c11.7248001,11.7247925,23.4496231,23.0714111,35.1744308,34.7962036
		c4.1604233,4.1604004,5.2950821,8.6990356,3.782196,16.2634277c-1.1346512,0-2.26931,0-3.4039688,0
		c-61.2716026,0-122.1649857,0-183.4365845,0c-1.1346588,0-2.2693214,0-3.4039764,0
		C-64.315773,550.3302612-64.315773,529.1499634-64.315773,507.9696655z M89.6196671,557.1382446
		c5.2950668,0,10.5901489,0,15.885231,0c1.1346588,0,1.891098-0.7564697,3.0257568-0.7564697
		c-0.3782272-0.7564087-0.7564392-1.8911133-1.512886-2.647522c-7.9426041-7.5643921-15.885231-15.1287842-23.4496231-22.6931763
		c-2.6475296-2.647522-5.6733017-4.1604004-9.4554977-3.7822266c-2.26931,0.3782349-3.0257568,0.7564697-3.0257568,3.0258179
		c0,7.9425659,0,16.2634277,0,24.2059937c0,2.2693481,0.7564468,3.0258179,3.0257568,3.0258179
		C78.6512909,557.1382446,84.324585,557.1382446,89.6196671,557.1382446z"/>
	<path id="Path_11" d="M220.1054688,478.8467407c-1.1346436,6.8079529-1.891098,13.6159363-3.4039612,20.0456543
		c-4.9168549,22.6931763-16.2634583,41.604187-32.5269165,57.4893799
		c-12.4812317,12.1030884-26.8535919,20.802124-43.1170349,26.8536377
		c-0.7564545,0.3782349-1.8911133,0.3782349-3.0257568,0.7564087c0-5.2950439,0-10.5901489,0-15.506958
		c0-0.7564697,1.1346436-1.5128784,2.2693024-1.8911133c10.5901642-4.5386353,20.0456696-10.2119751,28.7447205-17.7763672
		c19.6674194-17.3980713,31.3922272-38.956604,34.0397644-65.053772
		c3.0257568-28.3664856-4.1604156-54.0854492-22.3149567-76.0221558
		c-17.0198975-20.8020935-38.9566345-33.2833557-65.4320221-36.3091125
		c-35.1744308-4.1604309-65.0538025,6.8079529-88.8816376,32.9051208
		C6.7895355,425.8959656-1.1530733,451.6149292,0.3598042,480.3596191c0,2.6475525,0.7564352,5.2950745,1.1346564,8.3208618
		c-5.2950754,0-10.5901508,0-16.2634468,0c-0.3782215-7.1861877-0.756443-14.7505798-0.756443-21.9367676
		c0.756443-17.3981018,4.9168577-33.6615601,13.2376919-48.7903442
		c18.9109879-33.6615601,46.8992462-54.8418579,84.7212219-61.6498108
		c35.1744308-6.0515137,66.9449005,2.647522,94.176712,24.9624939
		c23.8278503,19.6674194,38.2002106,45.0081787,42.3606262,76.0221863c0.3782196,2.647522,0.756424,4.9168701,1.1346436,7.5643921
		C220.1054688,469.3912354,220.1054688,474.3081055,220.1054688,478.8467407z"/>
	<path id="Path_12" class="st1" d="M-64.315773,576.8056641c0.7564392,0,1.891098,0,2.6475372,0
		c61.6498184,0,122.9214172,0,184.571228,0c1.1346588,0,1.8911057,0,3.4039841,0
		c0,0.7564697,0.3782196,1.5128784,0.3782196,2.2692871c0,5.6733398,0,11.3466187,0,17.0198975
		c0,6.8079834-3.7822037,10.2119751-10.5901566,10.2119751c-2.6475372,0-5.6732941,0-8.3208313,0
		c-3.4039841-13.2376709-11.3465958-21.5585327-25.3407288-21.5585327c-13.6159058,0-21.9367447,7.942627-24.9624977,21.1802979
		c-16.641674,0-33.2833443,0-49.9250107,0c-1.5128775-7.5643921-5.2950754-13.6159058-11.7248135-17.7763062
		c-4.1604147-2.647583-8.6990509-3.7822266-13.6159086-3.7822266c-10.5901546,0.3782349-21.558527,6.8079834-24.5842838,21.5585327
		c-4.5386391,0-9.0772743,0.3782349-13.6159134,0c-4.1604156-0.3782349-6.4297333-3.4039917-7.5643921-7.1861572
		C-64.315773,591.5562134-64.315773,583.9918213-64.315773,576.8056641z"/>
	<path id="Path_13" d="M86.5939102,471.2823486c0-4.1604004,2.2693176-8.6990356,6.4297256-11.724823
		c1.512886-1.1346436,2.6475449-2.647522,3.0257721-4.1604004c6.4297256-21.1802979,12.8594589-42.3605957,19.2891998-63.5409241
		c0-0.3782043,0.378212-1.1346436,0.378212-1.5128784c1.1346741-3.0257568,3.4039841-4.5386353,6.0515289-3.782196
		c2.6475372,0.7564392,4.160408,3.0257568,3.782196,6.4297485c-0.7564392,6.0515137-1.891098,11.7247925-3.0257568,17.7763062
		c-2.6475372,16.6416626-5.2950821,33.2833557-7.9426193,49.9250183c-0.3782196,1.5129089,0.7564392,3.4039917,0.7564392,4.9168396
		c1.1346588,5.6733093,5.6732941,8.3208618,9.8337097,11.7248535c9.4554901,7.5643921,19.2892151,15.1287842,28.7447052,22.6931763
		c0.7564392,0.7564392,1.891098,1.5128479,2.2693176,2.2693176c1.5128784,1.8910828,1.5128784,4.1604004,0,6.0515137
		c-1.5128784,1.8910828-3.4039764,2.647522-5.6732941,1.8910828c-1.1346588-0.3782043-1.891098-0.7564087-3.0257568-1.5128784
		c-12.8594818-6.8079224-26.097168-13.6159058-38.9566345-20.4238586c-1.1346588-0.7564392-2.6475372-1.1346436-4.1604233-0.7564392
		C95.6711807,489.0586853,86.9721298,481.8724976,86.5939102,471.2823486z M110.0435257,472.4170227
		c0-4.1604309-3.4039688-7.5643921-7.5643921-7.5643921c-4.1604156,0-7.9426117,3.4039612-7.5643997,7.5643921
		c0,4.1604004,3.4039841,7.5643921,7.5643997,7.5643921C106.2613297,479.9814148,110.0435257,476.5774231,110.0435257,472.4170227z"
		/>
	<path id="Path_14" class="st1" d="M1.4944606,609.7108154c0,10.5901489-8.3208303,18.9109497-18.9109879,19.2891846
		c-10.5901508,0-19.2892075-8.6990356-19.2892075-19.2891846c0-10.2119751,8.6990566-18.9110107,18.9109898-18.9110107
		C-7.2045908,590.7998047,1.1162394,599.4988403,1.4944606,609.7108154z M-8.3392506,610.0889893
		c0-5.2950439-4.1604195-9.4554443-9.4554939-9.4554443s-9.4554939,4.1604004-9.4554939,9.4554443
		c0,5.295105,4.1604156,9.4555054,9.4554939,9.4555054S-8.3392506,615.3840942-8.3392506,610.0889893z"/>
	<path id="Path_15" class="st1" d="M63.1442833,610.0889893c0-10.5901489,8.3208427-18.9109497,18.9109917-19.2891846
		c10.211937,0,18.9109879,8.3208008,19.2891998,18.9110107C101.3444748,620.3009644,92.6454239,629,82.055275,629
		C71.843338,629,63.1442833,620.3009644,63.1442833,610.0889893z M72.9779892,610.0889893
		c0,5.295105,4.1604309,9.4555054,9.4554977,9.4555054c5.2950821,0,9.4554901-4.1604004,9.4554901-9.4555054
		c0-5.2950439-4.160408-9.4554443-9.4554901-9.4554443C77.1384201,600.2553101,72.9779892,604.7939453,72.9779892,610.0889893z"/>
</g>
</svg>
