<?xml version="1.0" encoding="utf-8"?>
<!-- Generator: Adobe Illustrator 19.0.0, SVG Export Plug-In . SVG Version: 6.00 Build 0)  -->
<svg version="1.1" id="Layer_1" xmlns="http://www.w3.org/2000/svg" xmlns:xlink="http://www.w3.org/1999/xlink" x="0px" y="0px"
	 width="271.3999939px" height="90.8000031px" viewBox="-133 356.2000122 271.3999939 90.8000031"
	 style="enable-background:new -133 356.2000122 271.3999939 90.8000031;" xml:space="preserve">
<style type="text/css">
	.st0{fill:#5C626F;}
	.st1{fill:#5BA0BD;}
</style>
<g>
	<g>
		<path class="st0" d="M-29.4000015,418.3000183h-3.4000015c-1,0-1.8000031-0.3000183-2.4000015-0.8999939
			C-35.8000031,416.8000183-36.1000061,416-36.1000061,415v-13.0999756c0-1.5-0.5-2.7000122-1.4000015-3.4000244
			c-0.9000015-0.6999817-2-1.0999756-3.0999985-1.0999756s-2.1999969,0.3999939-3.0999985,1.0999756
			c-0.9000015,0.7000122-1.3000031,1.9000244-1.3000031,3.4000244v16.3999939h-6.8000031v-15
			c0-4.3999939,1.0999985-7.3000183,3.4000015-8.8000183s4.8000031-2.2999878,7.5999985-2.3999939
			c2.8000031,0,5.4000015,0.7000122,7.8000031,2.2000122s3.5999985,4.5,3.5999985,9
			C-29.4000092,403.3000183-29.4000092,418.3000183-29.4000015,418.3000183z M-9.9000015,417.3000183
			c-1.4000015,0.6999817-2.8000031,1.1000061-4.3000031,1.2999878c-1.5,0.2000122-2.8000031,0.2000122-4,0.2000122
			c-2.3000031,0-4.3000031-0.6000061-6.0999985-1.8999939c-1.6999969-1.3000183-2.5999985-3.3000183-2.5999985-6.2000122
			c0-2.7000122,0.8000031-4.6000061,2.4000015-5.7999878c1.5999985-1.2000122,3.5999985-1.9000244,6-2.3000183
			c0.3000031,0,0.6999969,0,1.1999969-0.1000061c0.4000015-0.0999756,1-0.1999817,1.5-0.1999817
			C-13,401.9000244-11.5,401.1000061-11.5,399.8000183c0-1-0.5-1.6000061-1.5-1.8999939
			C-14,397.6000061-14.9000015,397.5-15.8000031,397.5s-1.6999969,0.1000061-2.4000015,0.4000244
			c-0.6999969,0.2999878-1.1999969,0.6999817-1.5,1.3999939h-6.5c0.3000031-2,1.1999969-3.6000061,2.6999969-4.8999939
			c1.6999969-1.5,4.1999969-2.2000122,7.4000015-2.2000122c3.5999985,0,6.3000031,0.6000061,8.0999985,1.7999878
			c1.9000015,1.3000183,2.8000031,3.1000061,2.8000031,5.4000244v8.7999878c0,2.6000061-0.5,4.6000061-1.4000015,6
			S-8.6000061,416.6000061-9.9000015,417.3000183z M-11.5,405.4000244c-0.9000015,0.5-2.1999969,0.8999939-3.8000031,1.2999878
			l-2.1999969,0.5C-18.6999969,407.5-19.5,407.9000244-20,408.5c-0.5,0.7000122-0.6999969,1.4000244-0.6999969,2.1000061
			c0,1,0.3000031,1.7000122,0.9000015,2.2999878c0.5999985,0.5,1.4000015,0.8000183,2.5,0.8000183
			c1.8000031,0,3.1999969-0.5,4.3000031-1.5c1-1,1.5-2.4000244,1.5-4.2000122
			C-11.4999924,408-11.4999924,405.3999939-11.5,405.4000244z M20.1999969,418.3000183h-3.3999939
			c-1,0-1.8000031-0.3000183-2.3999939-0.8999939C13.8000031,416.8000183,13.5000153,416,13.5000153,415v-13.0999756
			c0-1.5-0.5-2.7000122-1.3999939-3.4000244c-0.8999939-0.6999817-2-1.0999756-3.1000061-1.0999756
			c-1.1999969,0-2.1999969,0.3999939-3.1000061,1.0999756c-0.8999939,0.7000122-1.3999939,1.8000183-1.3999939,3.4000244v16.3999939
			h-6.8000031v-15c0-4.3999939,1.1000061-7.3000183,3.3999939-8.8000183c2.3000031-1.5,4.8000031-2.2999878,7.6000061-2.3999939
			c2.8000031,0,5.3999939,0.7000122,7.8000031,2.2000122c2.3999939,1.5,3.6000061,4.5,3.6000061,9v15H20.1999969z M26.3999939,416
			C25,414.8000183,24.0999908,413.3000183,23.5,411.3000183c-0.6000061-2-0.8999939-4-0.8999939-6.1000061
			c0-1.7000122,0.1999969-3.5,0.6999969-5.2000122c0.5-1.6999817,1.1999969-3.1999817,2.3000031-4.2999878
			c1.6999969-1.8999939,3.8000031-3.1000061,6.5-3.3999939c2.6000061-0.3999939,5-0.1000061,7.1000061,0.6000061
			c2.3999939,1,4.3000031,2.5999756,5.3999939,5C45.7000122,400,46.2000122,402.5,46.2000122,405.3000183
			c0,2.1000061-0.1999969,3.7999878-0.6999969,5.2999878s-1,2.7000122-1.6999969,3.8000183
			c-1.5,2.0999756-3.5,3.3999939-5.8999939,4C35.8000183,419,33.6000214,419,31.5000305,418.5
			c-2.1000061-0.5-3.8000031-1.2999878-5.1000061-2.5H26.3999939z M31,399c-1.3999939,1.5-2,3.7000122-1.8000031,6.6000061
			c0.1000061,2.8999939,0.6999969,5,1.6000061,6.1000061c0.3999939,0.5,1.1000061,1,2,1.2999878
			c1,0.4000244,1.8999939,0.4000244,2.8999939,0.1000061c1-0.2999878,1.8999939-1,2.6999969-2.2000122
			c0.8000031-1.1999817,1.1999969-3,1.3000031-5.5999756c0-2.3000183-0.3999939-4.1000061-1.1000061-5.2000122
			c-0.6999969-1.2000122-1.6000061-1.8999939-2.6000061-2.2000122c-1-0.2999878-1.8999939-0.2999878-2.8999939,0
			c-0.8999939,0.3000183-1.6000061,0.7000122-2.1000061,1.1000061H31z M50.3000031,418.3000183v-29.7000122
			c0-1,0.3000031-1.7999878,1-2.5c0.6999969-0.6999817,1.5-1,2.5-1h3.3999939V397.5h13.6999969v-12.3999939h7v33.2000122h-7V403.5
			H57.1999969v14.8000183H50.3000031z M88.1000061,385v20.8000183c0,2.6000061,0.5,4.5,1.3999939,5.6999817
			c1,1.2000122,2.6999969,1.7000122,4.8999939,1.7000122s3.8000031-0.6000061,4.8999939-1.7000122
			c1-1.1999817,1.5-3.0999756,1.5-5.6999817V385h6.8999939v21.5c0,4.1000061-1.1999969,7.2000122-3.5,9.4000244
			c-2.1000061,2.0999756-5.3999939,3.1999817-9.8999939,3.1999817c-4.3999939,0-7.6999969-1.1000061-9.8999939-3.1999817
			c-2.3000031-2.1000061-3.5-5.2000122-3.5-9.4000244v-17.7999878c0-1,0.3000031-1.7999878,1-2.6000061
			c0.6999969-0.6999817,1.5-1.1000061,2.5-1.1000061h3.6999969H88.1000061z M111.1000061,418.3000183v-29.7000122
			c0-1,0.3000031-1.7999878,1-2.5c0.6999969-0.6999817,1.5-1,2.5-1h12.2000122c3.3999939,0,6,0.7000122,7.7999878,2.1000061
			c1.7999878,1.5,2.7000122,3.6000061,2.7000122,6.2999878c0,1.7000122-0.3999939,3.1000061-1.1000061,4.2000122
			s-1.7000122,2-3,2.6000061c1.7000122,0.6999817,3,1.6999817,3.8999939,3
			c0.7999878,1.1999817,1.2999878,2.7999878,1.2999878,4.7999878c0,3.2000122-1,5.7000122-3.1000061,7.5
			c-2.1000061,1.7000122-5.1000061,2.6000061-9,2.6000061h-15.1999969L111.1000061,418.3000183z M117.6000061,397.9000244h7.7999878
			c1.7000122,0,2.8999939-0.3000183,3.7000122-0.9000244c0.7999878-0.5999756,1.2000122-1.5,1.2000122-2.6999817
			c0-1.2000122-0.3999939-2.1000061-1.2000122-2.7000122c-0.6000061-0.5-1.8999939-0.7999878-3.7999878-0.7999878h-7.6999969
			v7.0999756L117.6000061,397.9000244z M117.6000061,412.3000183h8.1000061c1.7999878,0,3.2000122-0.3999939,4.2000122-1.1000061
			c0.8999939-0.6000061,1.3999939-1.7000122,1.3999939-3.2999878c0-1.5-0.5-2.7000122-1.3999939-3.4000244
			c-0.7999878-0.5999756-2.2999878-1-4.2999878-1h-8v8.8000183H117.6000061z"/>
	</g>
	<g>
		<path class="st1" d="M-93,400.7000122c0-1.1000061,0.0999985-2,0.8000031-2.5
			c0.6999969-0.5,1.2999954-0.7999878,2.1999969-0.7999878s2,0.2999878,2.6999969,0.7999878
			c0.7000046,0.5,1.4000092,1.2999878,1.4000092,2.5v9.7000122c0,0.6999817-0.2000046,1.5,0.2999954,1.8999939
			c0.4000015,0.5,0.5999985,0.7999878,1.2999954,0.7999878H-81v-11.3999939c0-3.2999878-1.3000031-5.5-3.0999985-6.6000061
			S-88,393.5-90.0999985,393.5c-2,0.1000061-3.7999954,0.7000122-5.5,1.8000183S-98,398.5-98,401.8000183v11.3999939h5V400.7000122z
			"/>
		<path class="st1" d="M-63.6999969,423.2000122c-1.5,0-2.9000015,0.2999878-4.0999985,1L-71.5,420.1000061L-72.0999908,419.5
			c3.8999939-4.2999878,6.1999969-10,6.1999969-16.1999817c0-4.2000122-1.0999985-8.1000061-2.9000015-11.6000061
			l4.3000031-2.8999939c1.3000031,0.8999939,2.8000031,1.5,4.5,1.5c4.0999985,0,7.5-3.3999939,7.5-7.5s-3.4000015-7.5-7.5-7.5
			s-7.5,3.3999939-7.5,7.5c0,0.6999817,0.0999985,1.2999878,0.3000031,1.8999939l-4.4000015,2.8999939
			c-2.0999985-2.5-4.8000031-4.6000061-7.8000031-6.1000061l0.3000031-0.7999878l2.1999969-5.7999878
			c0.3000031,0,0.6000061,0.0999756,1,0.0999756c5.2000046,0,9.4000015-4.1999817,9.4000015-9.3999939
			c-0.1000061-5.1999817-4.3000107-9.3999939-9.5000076-9.3999939s-9.4000015,4.2000122-9.4000015,9.3999939
			c0,3.1000061,1.5,5.8000183,3.7999954,7.5L-84,379.7000122c-1.9000015-0.5-4-0.7999878-6.0999985-0.7999878
			s-4.2000046,0.2999878-6.0999985,0.7999878L-97.5,376.3000183c1.6000061-1.3999939,2.7000046-3.3999939,2.7000046-5.7000122
			c0-4.1000061-3.4000015-7.5-7.5-7.5s-7.5,3.3999939-7.5,7.5s3.4000015,7.5,7.5,7.5h0.2000046L-100.7999954,381.5
			c-3.9000015,1.9000244-7.0999985,4.8000183-9.5,8.4000244L-111.0999908,389.5l-3.1000061-1.5999756
			c0.1000061-0.6000061,0.2000046-1.3000183,0.2000046-2c0-5.2000122-4.2000046-9.4000244-9.4000015-9.4000244
			s-9.4000092,4.2000122-9.4000092,9.4000244c0,5.1999817,4.1999969,9.3999939,9.4000015,9.3999939
			c2.7000046,0,5.2000046-1.2000122,6.9000015-3l3.0999985,1.6000061l0.8000031,0.3999939
			c-1.0999985,2.7999878-1.7000046,5.7999878-1.7000046,8.8999939c0,0.8999939,0,1.7000122,0.1000061,2.6000061L-115,405.9000244
			l-4,0.8999939c-1.3000031-2.2000122-3.6999969-3.7000122-6.5-3.7000122c-4.1000061,0-7.5,3.3999939-7.5,7.5s3.3999939,7.5,7.5,7.5
			c3.8000031,0,6.9000015-2.7999878,7.4000015-6.3999939l4.9000015-1.1000061c1.0999985,3.3999939,2.8999939,6.5,5.2999954,9
			L-108.5,420.2000122l-4.1000061,4.7000122C-113.8000031,424.3000183-115.1000061,424-116.5,424
			c-5.2000046,0-9.4000015,4.2000122-9.4000015,9.4000244c0,5.1999817,4.1999969,9.3999939,9.4000015,9.3999939
			c5.1999969,0,9.3999939-4.2000122,9.3999939-9.3999939c0-2-0.5999985-3.8000183-1.6999969-5.3000183l4-4.6000061
			l0.5999985-0.5999756C-100.7000046,425.4000244-96,427-92,427.3000183v5.2999878c-2,1.2000122-4.5,3.8000183-4.5,6.8999939
			c0,4.1000061,3.3999939,7.5,7.5,7.5c4.0999908,0,7.5-3.3999939,7.5-7.5c0-3.5-1.5-6.3999939-5.5-7.2999878v-5
			c5-0.5,8-2.1000061,11.1999969-4.5l4.1999969,4.7000122c-1,1.5-1.5999908,3.2999878-1.5999908,5.1999817
			C-73.1999969,437.7999878-69,442-63.8000031,442s9.4000015-4.1999817,9.4000015-9.3999939
			S-58.5999985,423.2000122-63.6999969,423.2000122z M-60,380.1000061c1.4000015,0,2.5999985,1.2000122,2.5999985,2.6000061
			S-58.5999985,385.3000183-60,385.3000183s-2.5999985-1.2000122-2.5999985-2.6000061S-61.4000015,380.1000061-60,380.1000061z
			 M-123.4000015,390.4000244c-2.4000015,0-4.4000015-2-4.4000015-4.4000244c0-2.3999939,2-4.3999939,4.4000015-4.3999939
			S-119,383.6000061-119,386C-118.9000015,388.4000244-120.9000015,390.4000244-123.4000015,390.4000244z M-125.5,413.2000122
			c-1.4000015,0-2.6000061-1.2000122-2.6000061-2.6000061S-126.9000015,408-125.5,408s2.5999985,1.2000122,2.5999985,2.6000061
			S-124.0999985,413.2000122-125.5,413.2000122z M-116.5,437.9000244c-2.4000015,0-4.4000015-2-4.4000015-4.4000244
			c0-2.3999939,2-4.3999939,4.4000015-4.3999939s4.4000015,2,4.4000015,4.3999939
			C-112,435.9000244-114,437.9000244-116.5,437.9000244z M-76,361.1000061c2.4000015,0,4.4000015,2,4.4000015,4.3999939
			c0,2.4000244-2,4.4000244-4.4000015,4.4000244s-4.4000015-2-4.4000015-4.4000244
			C-80.4000015,363.1000061-78.4000015,361.1000061-76,361.1000061z M-102.4000015,373.2000122
			C-103.8000031,373.2000122-105,372-105,370.6000061S-103.8000031,368-102.4000015,368s2.5999985,1.2000122,2.5999985,2.6000061
			S-101,373.2000122-102.4000015,373.2000122z M-90.0999985,385.9000244c9.5999985,0,17.2999954,7.6999817,17.2999954,17.2999878
			S-80.5,420.5-90.0999985,420.5s-17.2999954-7.6999817-17.2999954-17.2999878S-99.6999969,385.9000244-90.0999985,385.9000244z
			 M-86.3999939,439.5c0,1.4000244-1.2000046,2.6000061-2.6000061,2.6000061c-1.3999939,0-2.5999908-1.1999817-2.5999908-2.6000061
			c0-1.3999939,1.1999969-2.5999756,2.5999908-2.5999756C-87.5999908,436.9000244-86.3999939,438.1000061-86.3999939,439.5z
			 M-63.6999969,437.1000061c-2.4000015,0-4.4000015-2-4.4000015-4.3999939s2-4.3999939,4.4000015-4.3999939
			s4.4000015,2,4.4000015,4.3999939S-61.2999954,437.1000061-63.6999969,437.1000061z"/>
	</g>
</g>
</svg>
