<?xml version="1.0" encoding="utf-8"?>
<!-- Generator: Adobe Illustrator 19.0.0, SVG Export Plug-In . SVG Version: 6.00 Build 0)  -->
<svg version="1.1"
	 id="svg4006" xmlns:sodipodi="http://sodipodi.sourceforge.net/DTD/sodipodi-0.dtd" xmlns:dc="http://purl.org/dc/elements/1.1/" xmlns:inkscape="http://www.inkscape.org/namespaces/inkscape" xmlns:cc="http://creativecommons.org/ns#" xmlns:svg="http://www.w3.org/2000/svg" xmlns:rdf="http://www.w3.org/1999/02/22-rdf-syntax-ns#" inkscape:version="0.48.1 " inkscape:export-ydpi="300" inkscape:export-xdpi="300" sodipodi:docname="3.svg" inkscape:export-filename="F:\PROJECTS\Miami\Optuno\3.png"
	 xmlns="http://www.w3.org/2000/svg" xmlns:xlink="http://www.w3.org/1999/xlink" x="0px" y="0px" width="607.9656982px"
	 height="188.6144562px" viewBox="28.6322746 302.9427795 607.9656982 188.6144562"
	 style="enable-background:new 28.6322746 302.9427795 607.9656982 188.6144562;" xml:space="preserve">
<style type="text/css">
	.st0{fill:#FF6600;}
	.st1{fill:#333333;}
</style>
<sodipodi:namedview  id="namedview4010" inkscape:cy="482.63199" showguides="true" inkscape:zoom="0.5" inkscape:cx="216.48003" bordercolor="#666666" showgrid="false" borderopacity="1.0" pagecolor="#ffffff" inkscape:window-maximized="1" inkscape:pageopacity="0.0" inkscape:pageshadow="2" inkscape:window-x="-8" inkscape:document-units="mm" inkscape:window-height="1138" inkscape:guide-bbox="true" inkscape:window-width="1600" inkscape:current-layer="g4253" inkscape:window-y="32">
	</sodipodi:namedview>
<g>
	<g id="g4288" transform="translate(-117.37973,14.0101)">
		<path id="path4290" sodipodi:nodetypes="cccccc" inkscape:connector-curvature="0" class="st0" d="M419.6979065,319.5469971
			l-10.2999878,11.1000061l10.1000061,11.1000061h18.2999878c0.1000061-7.3999939,0.2999878-14.8999939,0.1000061-22.2999878
			L419.6979065,319.5469971L419.6979065,319.5469971z"/>
		<g id="g4292" transform="matrix(0.77619123,0,0,0.77619123,141.58131,123.25267)">
			<path id="path4294" inkscape:connector-curvature="0" class="st1" d="M226.8169861,239.9526367
				c-5.3000031,0.1000061-10.5,0.6999969-15.6999969,1.8999939c-14.8000031,3.6000061-28.5000153,12.1000061-38.0000153,24.1000061
				c-9.5,11.7999878-15.1999969,26.7999878-15.3000031,42.1000061c0,14.6000061,0,29.2000122,0,43.8000183h-19.3000183
				c-8.1999969,12.2000122-20.0999985,21.7999878-33.6999969,27.7000122l53.0000153-0.6000061V445.15271l13.8999939,11.2999878
				l13.9000092-11.2999878c0-18.6000366,0-47.5000305,0-66.2000427c14.6000214,0,29.1000214,0.7000122,43.7000122,0.6000061
				c15.9000092-0.2000122,31.5000305-6.3999939,43.6000061-16.7999878c5.7999878-5,10.7999878-10.8999939,14.7000122-17.5
				c-3.1000061-5.6000366-5.5-11.6000366-6.8999939-17.9000244c-3.1000061-21.5-2.2000122-43.2999878-1.8999939-65
				c-8.6000061-9.2000122-19.7999878-16.1000214-31.8999939-19.6000214
				C240.4169922,240.8526306,233.6169891,239.9526367,226.8169861,239.9526367L226.8169861,239.9526367z M227.4169922,267.6526489
				c14-0.2000122,27.8000183,7.1000061,35.4000244,18.8999939c7.3999939,11,8.8999939,25.6000061,4.2000122,38
				c-4.1000061,11.2999878-13.3999939,20.5000305-24.6000214,24.6000366c-6,2.2999878-12.6000061,2.7999878-19,2.6000061
				c-12.6000061,0-25.1999969,0-37.8000183,0v-42.8000183c0-10.8999939,4.6999969-21.6000061,12.4000092-29.2999878
				C205.8169861,272.1526489,216.516983,267.6526489,227.4169922,267.6526489z"/>
			<path id="path4296" inkscape:connector-curvature="0" class="st1" d="M299.1170044,213.4526215l-13.7999878,11.3000183
				c0,42.2000275,0,43.2000275,0,85.4000092c0,17.7999878,7.6000061,35.4000244,20.1000061,48.0000305
				c11.6000061,11.7999878,27.4000244,19.3999939,43.9000244,20.7000122c4.7000122,0.2999878,47.5,0.2000122,77.0000305,0.2000122
				c-12.8000183-6.2000122-24.0000305-15.7999878-31.8000183-27.7000122c-20.2999878,0-39,0-41.2000122-0.1000061
				c-10.8999939-0.3999939-21.5-5.2000122-29-13.2000427c-7.3000183-7.7000122-11.4000244-18.2999878-11.4000244-28.8999939
				c0-13.5,0.1000061-14.1000061,0.1000061-27.6000061c18.6000366,0,14.4000244,0,33.0000305,0l-13-14.2999878
				l13.2000122-14.3000183h-33.3000183c0-9.3999939,0-11.6000061,0-16.3000031s0-2.3999939,0-11.8000031L299.1170044,213.4526215z"
				/>
			<g id="g4298">
				<path id="path4300" inkscape:connector-curvature="0" class="st1" d="M402.8170471,239.9526367l-14,12.8999939
					l-0.2000122,22.0000305l0.2000122,14.2999878v0.6000061c0,10.5,0,0.3999939,0,10.8999939
					c0,6.3999939-0.2999878,12.7000122,0.7000122,19c2.2999878,16.1000061,10.5,31.2000427,22.5,42.1000366
					c12.7000427,11.5,29.9000244,18.1000061,47.1000366,17.7999878c15.7000122,0.1000061,31.2000122-5.6000061,43.2999878-15.5
					c15.1999817-12.2000122,24.8999939-31.0000305,25.8999939-50.4000244c0-0.8999939,0.0999756-2,0.0999756-2.8999939
					c0-2.5,0-2.3999939,0-3.7999878l0,0c0-1.2000122,0-2.2999878,0-3.3999939
					c0.7000122-13.3999939,8.2000122-22.6000061,19.5999756-29.5c11.7999878-7.3999939,27.500061-8.5,40.1000366-2.5
					c14.4000244,6.5,24.0999756,18,24.2000122,33.7000122c0,23.5-0.2000122,37.3000183-0.2000122,60.8000183l13.7999878,12.8999939
					l14.0999756-13v-5.3999939c-12.4000244-13.7999878-20.0999756-31.9000244-20-50.6000366
					c-0.4000244-13.1000061,3.0999756-25.7999878,9.5-37c-3.5-5.6000061-7.7999878-10.7999878-12.7000122-15.3000183
					c-12.7000122-11.5-29.9000244-18.1000061-47.1000366-17.8000031c-15.7000122-0.1000061-31.2000122,5.6000061-43.2999878,15.5
					c-15.2000122,12.2000275-24.8999939,27.3000031-25.8999939,46.7000275c0,0.1000061,0,0.1000061,0,0.1000061
					c0,0.8999939-0.1000061,1.7999878-0.1000061,2.7000122c0,1.5,0,2.8999939,0,3.7999878c0,1.2000122,0,2.2999878,0,3.3999939
					c-0.7000122,13.3999939-8.2000122,26.2999878-19.6000061,33.2000427c-11.7999878,7.3999939-27.5,8.5-40.1000061,2.5
					c-14.3999939-6.5-24.1000366-21.7000427-24.2000427-37.4000244c0-14,0-7.5,0-21.5v-14.2999878l0.1000061-22.0000153
					L402.8170471,239.9526367z"/>
			</g>
			<g id="g4302">
				<path id="path4304" inkscape:connector-curvature="0" class="st1" d="M69.3169403,240.1526337
					c12.8000107-1.1000061,26.0000076,1.3000031,37.5000153,7.3000031c17,8.5,30.3000031,24.1000061,35.5999908,42.4000244
					c3.3000183,11.3999939,3.6000214,23.6000061,1.1000214,35.2000122
					c-4.4000092,19.7000427-17.8000183,37.2000427-35.7000122,46.6000366
					c-11.7000046,6.2999878-25.2000046,8.8999939-38.4000168,7.7999878
					c-16.4000053-1.2999878-32.3000069-8.7999878-43.7000122-20.6000061
					c-12.8000021-13.1000061-20.300005-31.3000183-20.0000057-49.6000366c0-13.7000122,4.2000012-27.3999939,12.0000038-38.7000122
					C29.1169319,253.2526398,48.6169395,241.7526398,69.3169403,240.1526337 M65.6169434,268.752655
					c-17.4000053,3.7000122-31.3000107,19.5-32.5000114,37.2999878c-1.2000008,13,4.1000023,26.5,13.9000053,35.2000427
					c8.4000053,7.5,19.9000092,11.2999878,31.1000061,10.5c12.1000061-0.7999878,23.7000046-7,30.9000168-16.7000427
					c6.3000031-8.5,9.3000031-19.3999939,8.0999985-30c-1.3000031-13.2000122-9.4000015-25.3999939-21.0000076-31.8999939
					C87.0169525,267.9526367,75.9169464,266.3526611,65.6169434,268.752655L65.6169434,268.752655z"/>
				<path id="path4306" inkscape:connector-curvature="0" class="st1" d="M690.2171021,240.1526337
					c12.7999878-1.1000061,26,1.3000031,37.5,7.3000031c17,8.5,30.2999878,24.1000061,35.5999756,42.4000244
					c3.2999878,11.3999939,3.5999756,23.6000061,1.0999756,35.2000122
					c-4.4000244,19.7000427-17.7999878,37.2000427-35.7000122,46.6000366
					c-11.7000122,6.2999878-25.2000122,8.8999939-38.4000244,7.7999878
					c-16.4000244-1.2999878-32.2999878-8.7999878-43.7000122-20.6000061
					c-12.7999878-13.1000061-20.2999878-31.3000183-20-49.6000366c0-13.7000122,4.2000122-27.3999939,12-38.7000122
					C650.1171265,253.2526398,669.6171265,241.7526398,690.2171021,240.1526337 M686.6171265,268.752655
					c-17.4000244,3.7000122-31.2999878,19.5-32.5,37.2999878c-1.2000122,13,4.0999756,26.5,13.9000244,35.2000427
					c8.4000244,7.5,19.9000244,11.2999878,31.0999756,10.5c12.0999756-0.7999878,23.7000122-7,30.9000244-16.7000427
					c6.2999878-8.5,9.2999878-19.3999939,8.0999756-30c-1.2999878-13.2000122-9.4000244-25.3999939-21-31.8999939
					C708.0171509,267.9526367,696.9171143,266.3526611,686.6171265,268.752655L686.6171265,268.752655z"/>
			</g>
			<g id="g4308">
			</g>
		</g>
		<g id="g4310" transform="matrix(0.50326187,0,0,0.50326187,-112.27464,301.19878)">
			<path id="path4312" inkscape:connector-curvature="0" class="st1" d="M953.6396484,278.6621704
				c7.4000244-1.7999878,16.0999756,1.2999878,19.7999878,8.2000122c2.5999756,5.2999878,1.9000244,11.5,2.0999756,17.2000122
				c-0.0999756,6.2999878,0.2999878,13.7000122-4.7999878,18.3999939
				c-7.9000244,8.2999878-23.9000244,6.2000122-28.5999756-4.6000061c-2.5999756-7.3999939-1.2999878-15.3999939-1.5-23
				C940.4396362,287.1621704,946.239624,280.1621704,953.6396484,278.6621704 M954.5396118,285.4621887
				c-3.5999756,1.1000061-6.0999756,4.7000122-6.2999878,8.3999939c-0.5,6.3999939-0.5999756,12.8999939,0.2000122,19.2000122
				c0.7000122,5.7000122,7.0999756,9.1000061,12.4000244,7.3999939c3.9000244-1,6.5999756-4.7000122,6.7999878-8.6000061
				c0.4000244-6.3999939,0.5999756-12.8999939-0.2000122-19.2999878
				C966.6396484,286.7621765,959.8395996,283.3621826,954.5396118,285.4621887z"/>
			<path id="path4314" inkscape:connector-curvature="0" class="st1" d="M1201.6396484,284.4621887
				c6.4000244-8,20.1998291-8.3999939,26.9998779-0.7000122c2.5,2.7000122,3.6999512,6.1000061,4.5,9.6000061c-2.5,0-5,0-7.5,0
				c-1-3.7999878-3.5999756-7.5-7.5999756-8.2000122c-5.4000244-1.6000061-11.7999268,2.2000122-12.1998291,8
				c-0.5999756,7-0.9000244,14.1000061,0.3000488,21c1.6999512,7,11.3999023,8.7999878,16.2999268,4.1000061
				c3.1999512-2.7000122,3.3000488-7.2000122,3.3000488-11c-3.5,0-6.9000244,0-10.4000244,0c0-2.1000061,0-4.2000122,0-6.2999878
				c5.9000244,0,11.8000488,0,17.6999512,0c-0.1999512,6.7999878,1.0999756,14.7000122-3.5999756,20.2999878
				c-6.6999512,8.6000061-21.3999023,8.5-28.0998535-0.2000122c-4.3000488-5.3999939-3.3000488-12.6000061-3.5-19
				C1197.9395752,296.0621948,1197.4395752,289.2621765,1201.6396484,284.4621887L1201.6396484,284.4621887z"/>
			<path id="path4316" inkscape:connector-curvature="0" class="st1" d="M803.1397095,278.5621948c10.2999878,0,20.7000122,0,31,0
				c0,2.2000122,0,4.3999939,0,6.7000122c-7.7999878,0-15.7000122,0-23.5999756,0c0,4.7000122,0,9.3999939,0,14.1000061
				c6.7000122,0,13.4000244,0,20.2000122,0c0,2.2000122,0,4.3999939,0,6.6000061c-6.7000122,0-13.5,0-20.2000122,0
				c0,4.7999878,0,9.7000122,0,14.5c7.7999878,0,15.7000122,0,23.5999756,0c0,2.2000122,0,4.3999939,0,6.7000122
				c-10.2999878,0-20.7000122,0-31,0C803.1397095,310.9621887,803.1397095,294.7621765,803.1397095,278.5621948z"/>
			<path id="path4318" inkscape:connector-curvature="0" class="st1" d="M844.1397095,278.5621948c2.5,0,4.9000244,0,7.4000244,0
				c4.7000122,10,9.4000244,20,14.2000122,30c4.5999146-10,9.1999512-20,13.7999268-30c2.5,0,5,0,7.5,0
				c0,16.2000122,0,32.2999878,0,48.5c-2.5,0-4.9000244,0-7.4000244,0c0-10.7000122,0-21.3999939,0-32.2000122
				c-3.7000122,7.7999878-7.4000244,15.6000061-11.0999146,23.3999939c-1.7999878,0-3.7000122,0-5.5,0
				c-3.7999878-7.7999878-7.5999756-15.6000061-11.4000244-23.5c0,10.7000122,0,21.5,0,32.2000122c-2.5,0-5,0-7.4000244,0
				C844.1397095,310.9621887,844.1397095,294.7621765,844.1397095,278.5621948L844.1397095,278.5621948z"/>
			<path id="path4320" inkscape:connector-curvature="0" class="st1" d="M899.5396118,278.5621948c6.2000122,0,12.5,0,18.7000122,0
				c4.2999878,0,8.7000122,1.5,11.5999756,4.7999878c5.7999878,6.2999878,4.5999756,17.8999939-2.9000244,22.2999878
				c-6,3.7000122-13.4000244,2-20,2.3999939c0,6.2999878,0,12.6000061,0,19c-2.5,0-4.9000244,0-7.4000244,0
				C899.5396118,310.9621887,899.5396118,294.7621765,899.5396118,278.5621948 M906.9396362,285.2621765
				c0,5.3999939,0,10.7000122,0,16.1000061c4.9000244-0.2999878,10.0999756,0.7999878,14.7999878-0.8999939
				c6-2.5,5.5999756-12.6000061-0.5999756-14.6000061C916.5396118,284.6621704,911.6396484,285.4621887,906.9396362,285.2621765z"/>
			<path id="path4322" inkscape:connector-curvature="0" class="st1" d="M980.0396118,278.5621948
				c2.5999756,0,5.2000122,0,7.9000244,0c2.9000244,11.2000122,5.0999756,22.7000122,8.5,33.7000122
				c3.2999878-11.2000122,6.2999878-22.5,9.5-33.7000122c2,0,4,0,6,0c3.2000122,11.5,6.499939,23,9.6000366,34.5
				c2.9000244-11.5,5.5999756-23,8.4000244-34.5c2.5999756,0,5.1999512,0,7.8000488,0
				c-4.1999512,16.2000122-8.4000244,32.2999878-12.6999512,48.5c-2.1999512,0-4.4000244,0-6.5,0
				c-3.2000122-11.2000122-6.5-22.5-9.7999878-33.7000122c-3.2999878,11.2999878-6.5,22.5-9.7000122,33.7999878
				c-2.2000122,0-4.4000244,0-6.5-0.1000061C988.4396362,310.8621826,984.239624,294.7621765,980.0396118,278.5621948
				L980.0396118,278.5621948z"/>
			<path id="path4324" inkscape:connector-curvature="0" class="st1" d="M1044.9395752,278.5621948c10.3000488,0,20.6999512,0,31,0
				c0,2.2000122,0,4.3999939-0.0999756,6.7000122c-7.8000488,0-15.6999512,0-23.5,0c0,4.7000122,0,9.3999939,0,14.1000061
				c6.6999512,0,13.4000244-0.1000061,20.1999512,0c0,2.2000122,0,4.2999878,0,6.5c-6.6999512,0.1000061-13.4000244,0-20.1999512,0
				c0,4.7999878,0,9.7000122,0,14.5c7.9000244,0,15.6999512,0,23.5999756,0c0,2.2000122,0,4.3999939,0,6.6000061
				c-10.3000488,0-20.6999512,0-31,0C1044.9395752,310.9621887,1044.9395752,294.7621765,1044.9395752,278.5621948
				L1044.9395752,278.5621948z"/>
			<path id="path4326" inkscape:connector-curvature="0" class="st1" d="M1085.9395752,278.5621948
				c6.0999756,0,12.1999512,0,18.3000488,0c3.4000244,0,7,0.6000061,9.9000244,2.6000061
				c6.9000244,4.6000061,7.8000488,15.7999878,1.6999512,21.3999939c-1.5999756,1.5-3.5999756,2.2999878-5.5999756,3.2000122
				c3.6999512,7.1000061,7.4000244,14.2000122,11.0999756,21.2999878c-2.9000244,0-5.8000488,0-8.6999512,0
				c-3.3000488-6.7999878-6.8000488-13.6000061-10.1999512-20.3999939c-3.0999756,0-6.0999756,0-9.0999756,0
				c0,6.7999878,0,13.6000061,0,20.3999939c-2.5,0-4.9000244,0-7.4000244,0
				C1085.9395752,310.9621887,1085.9395752,294.7621765,1085.9395752,278.5621948 M1093.3395996,285.2621765c0,5,0,10,0,15.1000061
				c4.9000244-0.2999878,9.9000244,0.7000122,14.6999512-0.6000061c5.8000488-2,5.9000244-11.5,0.0999756-13.7000122
				C1103.3395996,284.4621887,1098.239624,285.5621948,1093.3395996,285.2621765z"/>
			<path id="path4328" inkscape:connector-curvature="0" class="st1" d="M1130.5396729,278.5621948c2.5,0,4.9000244,0,7.4000244,0
				c0,16.2000122,0,32.2999878,0,48.5c-2.5,0-4.9000244,0-7.4000244,0
				C1130.5396729,310.9621887,1130.5396729,294.7621765,1130.5396729,278.5621948z"/>
			<path id="path4330" inkscape:connector-curvature="0" class="st1" d="M1150.5396729,278.5621948c2.3000488,0,4.5,0,6.8000488,0
				c7.5,11.2999878,14.9000244,22.6000061,22.3000488,33.8999939c0-11.2999878,0-22.6000061,0-33.8999939
				c2.4000244,0,4.9000244,0,7.4000244,0c0,16.2000122,0,32.2999878,0,48.5c-2.3000488,0-4.5999756,0-6.8000488,0
				c-7.4000244-11.2999878-14.8000488-22.6000061-22.3000488-33.8999939c0,11.2999878,0,22.6000061,0,33.8999939
				c-2.5,0-4.9000244,0-7.4000244,0C1150.5396729,310.9621887,1150.5396729,294.7621765,1150.5396729,278.5621948
				L1150.5396729,278.5621948z"/>
		</g>
		<g id="g4332" transform="matrix(0.49857368,0,0,0.49857368,119.49264,273.92464)">
			<path id="path4334" inkscape:connector-curvature="0" class="st1" d="M814.0758667,336.2077637
				c8.999939-2.7999878,20.499939,2.5,22.0999146,12.2999878c0.9000244,7.2999573,0.7000122,14.6999817,0.2000122,21.9999695
				c-0.5999756,8.2999878-8.7000122,14.5-16.7999268,14.3999939c-8,0.3999939-16.2999878-5.3999939-17.2999878-13.7000122
				c-0.7999878-6.8999939-0.5999756-14-0.2000122-20.8999634
				C802.4758301,343.6077881,807.6758423,337.9077759,814.0758667,336.2077637 M815.0758667,343.1077881
				c-3.7000122,1.5-5.5999756,5.5-5.5999756,9.2999878c-0.2999878,6.2999573-0.5999756,12.6999817,0.5,18.8999634
				c1.4000244,6.6000061,10.4000244,8.8999939,15.3999634,4.7999878c3.7000122-2.7000122,3.7000122-7.6000061,3.9000244-11.7000122
				c0-5.2000122,0.4000244-10.5999756-0.7999878-15.6999817
				C826.8757935,343.2077637,819.9758301,340.7077637,815.0758667,343.1077881L815.0758667,343.1077881z"/>
			<path id="path4336" inkscape:connector-curvature="0" class="st1" d="M942.0757446,336.1077881
				c7-1.7999878,15.0999756,0.6000061,19.2999878,6.7000122c3.7000122,5.5,2.7000122,12.3999939,2.9000244,18.6999817
				c0,6,0.4000244,12.7999878-3.9000244,17.5c-6.7000122,7.8999939-20.4000244,7.8999939-27.0999756,0
				c-4.2999878-4.7999878-3.9000244-11.6000061-4-17.6000061c0.2000122-5.5-0.5-11.3999634,1.7999878-16.4999695
				C933.1757202,340.507782,937.3757324,337.3077698,942.0757446,336.1077881 M942.975708,342.9077759
				c-3.9000244,1.3999939-5.9000244,5.3999939-6,9.2999878c-0.2999878,6.3999634-0.7000122,12.9999695,0.5999756,19.3999634
				c1.7000122,6.6000061,10.7999878,8.7000122,15.7000122,4.2999878c3.4000244-2.7999878,3.4000244-7.5,3.5-11.5
				c0-5.2000122,0.4000244-10.3999634-0.7999878-15.4999695C954.5757446,343.4077759,947.975708,340.8077698,942.975708,342.9077759
				L942.975708,342.9077759z"/>
			<path id="path4338" inkscape:connector-curvature="0" class="st1" d="M1082.3756104,335.9077759c2.5,0,4.9000244,0,7.4000244,0
				c0,10.7999878,0,21.6999817,0,32.4999695c0.0999756,5.7000122-3.0999756,11.3999939-8.0999756,14.1000061
				c-7,3.8999939-16.6999512,3-22.3000488-2.8999939c-2.9000244-3-4.4000244-7.1000061-4.4000244-11.2000122
				c0-10.8999939,0-21.6999817,0-32.5999756c2.4000244,0,4.9000244,0,7.4000244,0
				c0.1999512,11.2000122-0.1999512,22.3999634,0.1999512,33.5999756c0.1999512,6.2000122,7,10.2000122,12.6999512,8.3999939
				c4.3000488-0.8999939,7.1999512-5.2999878,7.0999756-9.5
				C1082.3756104,357.5077515,1082.3756104,346.7077637,1082.3756104,335.9077759L1082.3756104,335.9077759z"/>
			<path id="path4340" inkscape:connector-curvature="0" class="st1" d="M1149.3756104,335.9077759c2.5,0,5,0,7.5,0
				c0,16.2000122,0,32.3999634,0,48.5999756c-2.5,0-5,0-7.5,0
				C1149.3756104,368.3077393,1149.3756104,352.1077881,1149.3756104,335.9077759z"/>
			<path id="path4342" inkscape:connector-curvature="0" class="st1" d="M846.7757568,335.9077759
				c6.2999878,0,12.5999756-0.1000061,18.7999878,0c4.0999756,0.1000061,8.2999878,1.3999939,11.2000122,4.3999939
				c6.2000122,6.2000122,5.2000122,18.1999817-2.5,22.7999573c-6,3.7000122-13.4000244,1.8999939-20,2.2999878
				c0,6.2999878,0,12.7000122,0,19.1000061c-2.5,0-5,0-7.4000244,0
				C846.7757568,368.3077393,846.7757568,352.1077881,846.7757568,335.9077759 M854.1757813,342.7077637
				c0,5.2999878,0,10.6000061,0,15.9999695c4.7999878-0.2999878,9.7000122,0.6000061,14.2999878-0.6000061
				c6.4000244-2.1000061,6.4000244-12.4999695,0.0999756-14.6999817
				C863.975769,342.007782,858.975769,343.007782,854.1757813,342.7077637L854.1757813,342.7077637z"/>
			<path id="path4344" inkscape:connector-curvature="0" class="st1" d="M888.975769,384.5077515
				c0-16.2000122,0-32.3999634,0-48.5999756c6.2000122,0,12.4000244-0.1000061,18.7000122,0
				c4.2999878,0,8.7000122,1.5,11.7000122,4.7999878c5.7999268,6.3999939,4.5999146,17.9999695-3,22.3999634
				c-6,3.6000061-13.2999878,1.8999939-19.9000244,2.2999878c0,6.3999939,0,12.7000122,0,19.1000061
				C893.8757935,384.5077515,891.475769,384.5077515,888.975769,384.5077515 M896.3757935,342.7077637
				c0,5.2999878,0,10.6000061,0,15.9999695c4.9000244-0.2999878,9.9000244,0.7000122,14.7000122-0.7999878
				c6.2000122-2.3999634,5.7999878-12.6999817-0.5-14.6999817
				C905.8757935,342.1077881,901.0758057,342.9077759,896.3757935,342.7077637z"/>
			<path id="path4346" inkscape:connector-curvature="0" class="st1" d="M974.3757324,335.9077759
				c6.0999756,0,12.2000122,0,18.2999878,0c3.4000244,0,7,0.6000061,9.9000244,2.7000122
				c6.7000122,4.5,7.7999878,15.2000122,2.2000122,20.9999695c-1.5999756,1.7999878-3.9000244,2.7000122-6,3.6000061
				c3.7000122,7.1000061,7.4000244,14.2000122,11.0999756,21.2999878c-2.7999878,0-5.5999756,0-8.4000244,0l-0.5-0.2999878
				c-3.2999878-6.7000122-6.7000122-13.3999939-10-20.1000061c-3,0-6.0999756,0-9.0999756,0c0,6.7999878,0,13.6000061,0,20.3999939
				c-2.5,0-4.9000244,0-7.4000244,0C974.3757324,368.3077393,974.3757324,352.1077881,974.3757324,335.9077759
				 M981.7756958,342.7077637c0,5,0,10,0,15.0999756c4.9000244-0.2999878,10,0.7000122,14.7000122-0.7000122
				c6-2.1999817,5.5999756-12.1999817-0.5999756-13.8999634
				C991.2756958,342.1077881,986.475708,342.9077759,981.7756958,342.7077637L981.7756958,342.7077637z"/>
			<path id="path4348" inkscape:connector-curvature="0" class="st1" d="M1013.975708,335.9077759
				c11.3999023,0,22.7999268,0,34.1999512,0c0,2.2000122,0,4.5,0,6.7999878c-4.5,0-8.9000244,0-13.4000244,0
				c0,13.8999634,0,27.8999634,0,41.7999573c-2.5,0-4.9000244,0-7.4000244,0c0-13.8999939,0-27.8999939,0-41.7999573
				c-4.4000244,0-8.8999634,0-13.2999268,0C1013.975708,340.4077759,1013.975708,338.2077637,1013.975708,335.9077759z"/>
			<path id="path4350" inkscape:connector-curvature="0" class="st1" d="M1100.975708,384.5077515
				c0-16.2000122,0-32.3999634,0-48.5999756c2.1999512,0,4.5,0,6.8000488,0
				c7.4000244,11.2999878,14.8000488,22.5999756,22.3000488,33.7999573c0-11.2999878,0-22.4999695,0-33.7999573c2.5,0,5,0,7.5,0
				c0,16.2000122,0,32.3999634,0,48.5999756c-2.3000488,0-4.5999756,0-6.8000488,0
				c-7.5-11.2999878-14.9000244-22.6000061-22.3000488-33.8999634c0,11.2999573,0,22.5999756,0,33.8999634
				C1105.8756104,384.5077515,1103.3756104,384.5077515,1100.975708,384.5077515L1100.975708,384.5077515z"/>
			<path id="path4352" inkscape:connector-curvature="0" class="st1" d="M1164.475708,335.9077759
				c11.3999023,0,22.6998291,0,34.0998535,0c0,2.2999878,0,4.5,0,6.7999878c-4.4000244,0-8.9000244,0-13.3000488,0
				c0,13.8999634,0,27.8999634,0,41.7999573c-2.5,0-5,0-7.4000244,0c0-13.8999939,0-27.8999939,0-41.7999573
				c-4.4000244,0-8.9000244,0-13.2999268,0C1164.475708,340.4077759,1164.475708,338.2077637,1164.475708,335.9077759z"/>
			<path id="path4354" inkscape:connector-curvature="0" class="st1" d="M1200.1755371,335.9077759
				c2.6999512,0,5.4000244,0,8.1999512,0c3.3000488,7.1000061,6.6999512,14.1000061,10.0999756,21.1999817
				c3.4000244-7.0999756,6.6999512-14.1999817,10.0999756-21.1999817c2.6999512,0,5.4000244,0,8.1999512,0
				c-4.8000488,9.6000061-10,19.1000061-14.5,28.7999573c-0.1999512,6.6000061,0,13.2000122-0.0999756,19.7000122
				c-2.5,0-5,0-7.4000244,0c0-6,0-12.1000061,0-18.1000061c0.1999512-2-1-3.6000061-1.8000488-5.2999878
				C1208.6755371,352.7077637,1204.3754883,344.3077698,1200.1755371,335.9077759z"/>
		</g>
	</g>
	<g>
		<path class="st1" d="M614.9979248,330.1470032c0.5999756-1.3999939,1.4000244-2.5,2.4000244-3.5
			s2.2000122-1.7999878,3.5999756-2.3999939c1.4000244-0.6000061,2.7999878-0.8999939,4.4000244-0.8999939
			c1.5,0,3,0.2999878,4.2999878,0.8999939c1.4000244,0.6000061,2.5999756,1.3999939,3.5999756,2.3999939
			s1.7999878,2.2000122,2.4000244,3.5c0.5999756,1.3999939,0.9000244,2.7999878,0.9000244,4.3999939
			s-0.2999878,3.1000061-0.9000244,4.5c-0.5999756,1.3999939-1.4000244,2.6000061-2.4000244,3.6000061
			s-2.2000122,1.7999878-3.5999756,2.3999939c-1.4000244,0.6000061-2.7999878,0.8999939-4.2999878,0.8999939
			s-3-0.2999878-4.4000244-0.8999939s-2.5999756-1.3999939-3.5999756-2.3999939s-1.7999878-2.2000122-2.4000244-3.6000061
			c-0.5999756-1.3999939-0.9000244-2.8999939-0.9000244-4.5
			C614.0979004,333.0469971,614.3978882,331.5469971,614.9979248,330.1470032z M616.8978882,338.446991
			c0.5,1.2000122,1.0999756,2.2000122,2,3s1.7999878,1.5,2.9000244,2c1.0999756,0.5,2.4000244,0.7000122,3.7000122,0.7000122
			s2.5-0.2000122,3.5999756-0.7000122s2.0999756-1.2000122,2.9000244-2s1.5-1.8999939,2-3
			c0.5-1.2000122,0.7000122-2.3999939,0.7000122-3.7999878c0-1.2999878-0.2000122-2.6000061-0.7000122-3.7999878
			s-1.0999756-2.2000122-2-3c-0.7999878-0.7999878-1.7999878-1.5-2.9000244-2
			c-1.0999756-0.5-2.2999878-0.7000122-3.5999756-0.7000122s-2.5,0.2000122-3.7000122,0.7000122
			c-1.0999756,0.5-2.0999756,1.2000122-2.9000244,2c-0.7999878,0.8999939-1.5,1.8999939-2,3
			c-0.5,1.2000122-0.7000122,2.3999939-0.7000122,3.7999878C616.197876,335.946991,616.3978882,337.2469788,616.8978882,338.446991z
			 M621.0979004,328.0469971h5.0999756c1.5999756,0,2.7000122,0.2999878,3.5,0.8999939s1.0999756,1.6000061,1.0999756,2.7999878
			s-0.2999878,2-1,2.6000061s-1.5,0.8999939-2.5,1l3.7999878,5.7999878h-2.2000122l-3.5999756-5.6000061h-2.2000122v5.6000061h-2
			L621.0979004,328.0469971L621.0979004,328.0469971z M623.0979004,333.946991h2.0999756c0.4000244,0,0.9000244,0,1.2999878,0
			c0.4000244,0,0.7999878-0.1000061,1.0999756-0.2999878s0.5999756-0.3999939,0.7999878-0.6000061
			c0.2000122-0.2999878,0.2999878-0.7000122,0.2999878-1.2000122c0-0.3999939-0.0999756-0.7999878-0.2999878-1
			c-0.2000122-0.2999878-0.4000244-0.5-0.7000122-0.6000061s-0.5999756-0.2000122-0.9000244-0.2999878
			c-0.2999878,0-0.7000122-0.1000061-1-0.1000061h-2.7000122L623.0979004,333.946991L623.0979004,333.946991z"/>
	</g>
</g>
</svg>
