<svg xmlns="http://www.w3.org/2000/svg" width="22.994" height="22.587" viewBox="0 0 22.994 22.587">
  <g id="Group_929" data-name="Group 929" transform="translate(452.5 -478.558)">
    <path id="Path_1134" data-name="Path 1134" d="M-452.5,517.4V499.171c.023-.07.047-.14.069-.21a1.412,1.412,0,0,1,1.322-1.036c.845-.024,1.691,0,2.536,0,.011,0,.023.016.053.037v.207c0,.7-.016,1.408.008,2.11a2.19,2.19,0,0,0,.172.844,1.644,1.644,0,0,0,1.673.931,1.66,1.66,0,0,0,1.756-1.761c0-.711,0-1.422,0-2.133v-.235h8v.251c0,.711,0,1.422,0,2.133a1.619,1.619,0,0,0,.986,1.576,2.3,2.3,0,0,0,1.412.1,1.355,1.355,0,0,0,1.213-1.475c0-.778,0-1.557,0-2.335v-.245c.848,0,1.671-.008,2.492.007a1.27,1.27,0,0,1,.489.146,1.525,1.525,0,0,1,.814,1.091V517.4a3.918,3.918,0,0,1-.291.622,1.507,1.507,0,0,1-1.346.613q-4.285-.007-8.57,0-5.575,0-11.15-.008a2.282,2.282,0,0,1-.842-.174A1.483,1.483,0,0,1-452.5,517.4Zm1.492-13.653v13.4H-431v-13.4Z" transform="translate(0 -17.494)"/>
    <path id="Path_1135" data-name="Path 1135" d="M-401.328,481.374q0,.8,0,1.593a.9.9,0,0,1-.508.923,1.281,1.281,0,0,1-1.246-.065.823.823,0,0,1-.385-.722c0-1.152-.007-2.3,0-3.456a.891.891,0,0,1,.862-.891,3.381,3.381,0,0,1,.4,0,.854.854,0,0,1,.848.8c.031.6.008,1.211.008,1.816Z" transform="translate(-44.315 -0.174)"/>
    <path id="Path_1136" data-name="Path 1136" d="M-280.607,481.183c0,.531,0,1.062,0,1.594a.913.913,0,0,1-1.027,1.019,1.887,1.887,0,0,1-.423-.029.912.912,0,0,1-.689-.976c-.005-.726,0-1.451,0-2.177,0-.352,0-.7,0-1.055a.918.918,0,0,1,1.008-1c.62-.009.975.206,1.1.676a1.372,1.372,0,0,1,.032.333c0,.539,0,1.077,0,1.616Z" transform="translate(-153.43 0)"/>
    <path id="Path_1137" data-name="Path 1137" d="M-415.163,658.157c-.4,0-.793,0-1.189,0-.272,0-.319-.045-.32-.309q0-1.032,0-2.065c0-.249.05-.3.307-.3q1.2,0,2.4,0c.256,0,.31.06.31.323q0,1.01,0,2.02c0,.287-.048.331-.344.332Z" transform="translate(-32.383 -159.914)"/>
    <path id="Path_1138" data-name="Path 1138" d="M-370.3,658.165c-.4,0-.808,0-1.212,0-.251,0-.3-.051-.3-.3,0-.7,0-1.391,0-2.087,0-.2.086-.284.281-.283q1.223,0,2.446,0c.205,0,.3.083.3.3q-.01,1.043,0,2.087c0,.212-.09.3-.3.294C-369.494,658.161-369.9,658.165-370.3,658.165Z" transform="translate(-72.927 -159.921)"/>
    <path id="Path_1139" data-name="Path 1139" d="M-325.476,658.169c-.4,0-.793,0-1.189,0-.252,0-.3-.05-.3-.3,0-.7,0-1.391,0-2.087,0-.2.085-.285.281-.284q1.234,0,2.469,0c.183,0,.273.079.272.272q-.006,1.066,0,2.132c0,.191-.086.273-.271.272C-324.638,658.168-325.057,658.17-325.476,658.169Z" transform="translate(-113.461 -159.925)"/>
    <path id="Path_1140" data-name="Path 1140" d="M-280.58,658.166c-.4,0-.808,0-1.212,0-.253,0-.3-.049-.3-.3q0-1.032,0-2.065c0-.253.048-.3.3-.3.808,0,1.616,0,2.424,0,.206,0,.3.083.3.3q-.009,1.044,0,2.087c0,.212-.089.3-.3.295-.4-.005-.808,0-1.212,0Z" transform="translate(-154.023 -159.922)"/>
    <path id="Path_1141" data-name="Path 1141" d="M-325.443,577.619c.4,0,.808,0,1.212,0,.2,0,.282.082.28.283q-.008,1.055,0,2.109c0,.2-.091.278-.287.277-.815,0-1.63-.006-2.445,0-.214,0-.293-.086-.291-.3q.009-1.043,0-2.086c0-.217.092-.292.3-.288C-326.266,577.624-325.854,577.619-325.443,577.619Z" transform="translate(-113.458 -89.535)"/>
    <path id="Path_1142" data-name="Path 1142" d="M-280.623,580.287c-.4,0-.793-.005-1.189,0-.2,0-.3-.066-.3-.284q.01-1.054,0-2.108c0-.206.089-.277.285-.276q1.223.006,2.445,0c.21,0,.295.082.293.294-.007.688,0,1.376,0,2.064,0,.263-.048.308-.32.309-.4,0-.808,0-1.211,0Z" transform="translate(-154.007 -89.538)"/>
    <path id="Path_1143" data-name="Path 1143" d="M-415.177,616.554c.411,0,.823,0,1.234,0,.2,0,.284.082.283.282q-.007,1.054,0,2.109c0,.186-.072.277-.263.277q-1.245,0-2.49,0c-.188,0-.272-.079-.271-.269q.006-1.066,0-2.131c0-.19.083-.27.272-.267C-416,616.558-415.589,616.554-415.177,616.554Z" transform="translate(-32.372 -124.727)"/>
    <path id="Path_1144" data-name="Path 1144" d="M-370.31,619.215c-.4,0-.808,0-1.212,0-.2,0-.3-.065-.3-.284.008-.7.006-1.406,0-2.109,0-.2.089-.277.286-.276q1.223.008,2.446,0c.214,0,.292.09.291.3q-.008,1.043,0,2.086c0,.218-.1.289-.3.286-.4-.007-.808,0-1.211,0Z" transform="translate(-72.922 -124.723)"/>
    <path id="Path_1145" data-name="Path 1145" d="M-325.477,619.215c-.4,0-.808,0-1.212,0-.2,0-.282-.08-.281-.281q.009-1.055,0-2.109c0-.2.086-.28.284-.278q1.223.007,2.446,0c.212,0,.294.085.293.3q-.008,1.043,0,2.086c0,.216-.093.292-.3.289-.411-.006-.823,0-1.234,0Z" transform="translate(-113.462 -124.723)"/>
    <path id="Path_1146" data-name="Path 1146" d="M-280.589,616.547c.4,0,.808,0,1.211,0,.2,0,.288.075.287.278q-.006,1.055,0,2.109c0,.2-.083.284-.281.283q-1.234-.006-2.468,0c-.2,0-.276-.089-.274-.287q.009-1.043,0-2.086c0-.209.076-.3.29-.3C-281.411,616.553-281,616.547-280.589,616.547Z" transform="translate(-154.006 -124.72)"/>
  </g>
</svg>
