<svg xmlns="http://www.w3.org/2000/svg" width="24.65" height="17.1" viewBox="0 0 24.65 17.1">
  <g id="Group_14201" data-name="Group 14201" transform="translate(-1418.5 -1254.5)">
    <circle id="Ellipse_300" data-name="Ellipse 300" cx="3.775" cy="3.775" r="3.775" transform="translate(1427.05 1260.03)" fill="none" stroke="#c4c5c9" stroke-linejoin="round" stroke-width="2"/>
    <path id="Path_777" data-name="Path 777" d="M1436.11,1257.5h3.775a2.272,2.272,0,0,1,2.265,2.265v7.55a2.272,2.272,0,0,1-2.265,2.265h-18.121a2.272,2.272,0,0,1-2.265-2.265v-7.55a2.272,2.272,0,0,1,2.265-2.265h3.775" transform="translate(0 1.02)" fill="none" stroke="#c4c5c9" stroke-linecap="round" stroke-linejoin="round" stroke-width="2"/>
    <path id="Path_778" data-name="Path 778" d="M1423.5,1258.52l3.02-3.02h4.53l3.02,3.02" transform="translate(2.04)" fill="none" stroke="#c4c5c9" stroke-linecap="round" stroke-linejoin="round" stroke-width="2"/>
    <g id="Group_727" data-name="Group 727" transform="translate(1438.375 1260.03)">
      <g id="Path_779" data-name="Path 779" transform="translate(-1432 -1258.5)" fill="none" stroke-linejoin="round">
        <path d="M1432.755,1258.5a.755.755,0,1,0,.755.755.755.755,0,0,0-.755-.755Z" stroke="none"/>
        <path d="M 1432.755004882813 1258.5 C 1433.171752929688 1258.5 1433.510131835938 1258.83837890625 1433.510131835938 1259.255126953125 C 1433.510131835938 1259.671752929688 1433.171752929688 1260.010131835938 1432.755004882813 1260.010131835938 C 1432.33837890625 1260.010131835938 1432 1259.671752929688 1432 1259.255126953125 C 1432 1258.83837890625 1432.33837890625 1258.5 1432.755004882813 1258.5 Z" stroke="none" fill="#c4c5c9"/>
      </g>
    </g>
  </g>
</svg>
