<svg xmlns="http://www.w3.org/2000/svg" width="22.305" height="20.495" viewBox="0 0 22.305 20.495">
  <g id="Group_14192" data-name="Group 14192" transform="translate(-1845.417 -2761.742)">
    <path id="Path_10984" data-name="Path 10984" d="M1854.4,2761.742a9.28,9.28,0,0,1,8.664,5.9,7.757,7.757,0,0,1-3.051,8.915,9.315,9.315,0,0,1-8.785,1.181,1.417,1.417,0,0,0-1.2.056c-.776.388-1.577.733-2.383,1.057a.83.83,0,0,1-.692,0,.909.909,0,0,1-.2-.715c.129-.837.34-1.661.475-2.5a1.079,1.079,0,0,0-.124-.76c-3.3-4.16-1.667-10.41,4.088-12.44A25.47,25.47,0,0,1,1854.4,2761.742Zm3.753,9.828a1.065,1.065,0,1,0-1.056-1.061A1.1,1.1,0,0,0,1858.158,2771.57Zm-6.375-1.05a1.049,1.049,0,1,0-1.05,1.049A1.059,1.059,0,0,0,1851.783,2770.52Zm2.646-1.079a1.064,1.064,0,1,0,1.084,1.025A1.081,1.081,0,0,0,1854.429,2769.44Z" fill="#a3a3a3"/>
    <path id="Path_10985" data-name="Path 10985" d="M1912.348,2800.224a7.868,7.868,0,0,1,3.653,5.066,7.314,7.314,0,0,1-1.346,6.25,1.213,1.213,0,0,0-.234,1.109q.275,1.174.464,2.368c.034.221-.007.576-.149.674a.925.925,0,0,1-.746.036c-.808-.317-1.6-.669-2.382-1.052a1.427,1.427,0,0,0-1.2-.062,9.432,9.432,0,0,1-8.78-1.184c-.185-.126-.35-.281-.6-.484C1908.558,2814.219,1915.33,2807.331,1912.348,2800.224Z" transform="translate(-48.485 -33.55)" fill="#a3a3a3"/>
  </g>
</svg>
