<svg xmlns="http://www.w3.org/2000/svg" width="20.401" height="22.551" viewBox="0 0 20.401 22.551">
  <path id="Path_10988" data-name="Path 10988" d="M-270,1114.417a8,8,0,0,1,2.628-4.025c3.52-3.427,6.993-6.9,10.493-10.351a3.618,3.618,0,0,1,4.109-.764,3.659,3.659,0,0,1,2.162,3.58,3.493,3.493,0,0,1-1.053,2.334q-5.793,5.741-11.6,11.468a2.081,2.081,0,0,1-3,.022,2.069,2.069,0,0,1,.061-2.99c1.86-1.845,3.742-3.669,5.615-5.5.263-.257.547-.511.892-.162.375.379.085.662-.194.935q-2.667,2.613-5.328,5.233a2.4,2.4,0,0,0-.478.611.927.927,0,0,0,.271,1.179.95.95,0,0,0,1.263.061,2.27,2.27,0,0,0,.29-.264q5.66-5.6,11.316-11.2a2.585,2.585,0,0,0,.643-3.1,2.624,2.624,0,0,0-4.244-.7c-1.055,1.013-2.08,2.058-3.119,3.088-2.792,2.766-5.6,5.517-8.373,8.3a4.178,4.178,0,0,0,.7,6.6,4.144,4.144,0,0,0,5.217-.677q4.79-4.705,9.565-9.426c.3-.293.609-.88,1.112-.393s-.076.81-.372,1.1c-3.082,3.063-6.192,6.1-9.254,9.181a6.941,6.941,0,0,1-3.293,1.884h-1.573c-.141-.047-.28-.1-.423-.139a5.193,5.193,0,0,1-3.631-3.156,13.294,13.294,0,0,1-.4-1.292Z" transform="translate(270.5 -1098.395)" fill="#c4c5c9" stroke="#c4c5c9" stroke-width="1"/>
</svg>
