<svg xmlns="http://www.w3.org/2000/svg" width="22.737" height="22.729" viewBox="0 0 22.737 22.729">
  <g id="Group_928" data-name="Group 928" transform="translate(-191.117 657.4)">
    <path id="Path_1127" data-name="Path 1127" d="M213.854-653.923c-1.431,4.175-2.83,8.361-4.31,12.518a30.514,30.514,0,0,1-1.837,4.105,4.936,4.936,0,0,1-6.606,2.126q-3.826-1.717-7.639-3.463a4.055,4.055,0,0,1-2.338-4.073c.026-.453.1-.9.154-1.413,1.245.5,2.412.977,3.58,1.448,2.027.818,4.053,1.64,6.084,2.447a.508.508,0,0,1,.379.548,6.112,6.112,0,0,0,.193,1.5,2.221,2.221,0,0,0,3.674,1.16,4.768,4.768,0,0,0,1.286-1.679c.858-1.959,1.659-3.946,2.388-5.957,1.028-2.837,1.972-5.7,2.973-8.62l-11.318-2.255c-.2.554-.4,1.092-.6,1.632q-1.652,4.526-3.3,9.051c-.212.581-.481.8-.947.78a.847.847,0,0,1-.808-1.01,3.335,3.335,0,0,1,.155-.512q1.994-5.469,3.991-10.937c.3-.831.573-.981,1.454-.806q6.172,1.223,12.345,2.441a1.185,1.185,0,0,1,1.051.882Z" transform="translate(0)" fill="#252529"/>
    <path id="Path_1128" data-name="Path 1128" d="M310.437-552.52c0-.7.531-1.165,1.106-.992,1.377.417,2.743.873,4.1,1.345a.869.869,0,0,1,.53,1.138.9.9,0,0,1-1.174.549c-1.007-.3-2-.647-3-.975-.323-.106-.652-.2-.967-.328A.85.85,0,0,1,310.437-552.52Z" transform="translate(-108.799 -94.627)" fill="#252529"/>
    <path id="Path_1129" data-name="Path 1129" d="M299.17-510.632a2.757,2.757,0,0,1-.349-.074c-1.251-.408-2.5-.822-3.751-1.231a.919.919,0,0,1-.709-.772.879.879,0,0,1,1.147-.993c1.364.407,2.714.865,4.06,1.331a.875.875,0,0,1,.55,1.057A.923.923,0,0,1,299.17-510.632Z" transform="translate(-94.132 -130.895)" fill="#252529"/>
    <path id="Path_1130" data-name="Path 1130" d="M328.579-593.816c.1.022.282.054.46.1q1.749.473,3.5.952c.671.185.972.623.819,1.175a.915.915,0,0,1-1.259.6c-1.272-.338-2.542-.682-3.808-1.041a.926.926,0,0,1-.7-1.015A.928.928,0,0,1,328.579-593.816Z" transform="translate(-124.426 -57.933)" fill="#252529"/>
    <path id="Path_1131" data-name="Path 1131" d="M298.3-601.356a.941.941,0,0,1-1.013-.914.9.9,0,0,1,.9-.922.993.993,0,0,1,1.053.946A.916.916,0,0,1,298.3-601.356Z" transform="translate(-96.712 -49.38)" fill="#252529"/>
    <path id="Path_1132" data-name="Path 1132" d="M283.7-561.435a.9.9,0,0,1-.929.891.982.982,0,0,1-1.021-.929.931.931,0,0,1,.965-.914A.954.954,0,0,1,283.7-561.435Z" transform="translate(-82.564 -86.55)" fill="#252529"/>
    <path id="Path_1133" data-name="Path 1133" d="M267.172-524.505a.968.968,0,0,1,1.014.927.928.928,0,0,1-.921.911.964.964,0,0,1-1.028-.958A.892.892,0,0,1,267.172-524.505Z" transform="translate(-68.432 -121.058)" fill="#252529"/>
  </g>
</svg>
