<svg xmlns="http://www.w3.org/2000/svg" width="26.051" height="26.121" viewBox="0 0 26.051 26.121">
  <g id="Group_930" data-name="Group 930" transform="translate(1570.017 345.458)">
    <path id="Path_1148" data-name="Path 1148" d="M-1098.964,122.8l-.953.278a1.285,1.285,0,0,1-.244.063c-.166.014-.225.1-.241.259a2.884,2.884,0,0,1-.121.583.236.236,0,0,0,.1.308c.3.235.593.492.89.736a.125.125,0,0,1,.04.18q-.239.459-.469.922a.125.125,0,0,1-.169.073c-.4-.1-.808-.2-1.21-.3a.129.129,0,0,0-.156.052c-.17.2-.343.394-.522.583a.146.146,0,0,0-.038.182c.146.384.282.772.426,1.157a.126.126,0,0,1-.054.176c-.313.207-.624.418-.946.636-.191-.174-.369-.332-.54-.5s-.312-.315-.473-.466a.161.161,0,0,0-.133-.029c-.258.078-.512.169-.77.244a.138.138,0,0,0-.116.132c-.065.4-.137.793-.2,1.19-.017.1-.056.159-.176.163-.323.009-.645.03-.967.051a.152.152,0,0,1-.187-.13c-.107-.392-.227-.781-.337-1.173a.134.134,0,0,0-.124-.11c-.26-.05-.521-.1-.778-.164a.137.137,0,0,0-.165.057c-.261.318-.529.631-.791.949a.122.122,0,0,1-.177.042c-.3-.156-.6-.308-.9-.453a.155.155,0,0,1-.089-.212c.1-.39.191-.782.293-1.171a.14.14,0,0,0-.055-.168c-.2-.173-.4-.35-.592-.533a.131.131,0,0,0-.163-.029c-.384.146-.772.283-1.156.43a.139.139,0,0,1-.2-.065q-.266-.413-.539-.82a.16.16,0,0,1,.022-.239c.284-.285.559-.581.842-.867a.14.14,0,0,0,.036-.172c-.086-.246-.167-.494-.241-.744a.149.149,0,0,0-.141-.125q-.609-.1-1.215-.215c-.044-.008-.111-.059-.115-.095-.034-.387-.057-.775-.084-1.182.438-.126.853-.249,1.27-.361.106-.028.157-.062.174-.183a6.894,6.894,0,0,1,.154-.726.146.146,0,0,0-.057-.178c-.316-.257-.625-.522-.94-.78a.133.133,0,0,1-.044-.191q.238-.459.468-.922a.115.115,0,0,1,.157-.069c.4.1.807.2,1.21.3a.139.139,0,0,0,.167-.054c.165-.2.336-.389.513-.574a.156.156,0,0,0,.042-.194c-.147-.384-.285-.771-.424-1.158-.019-.053-.041-.1.028-.148.323-.215.644-.435.98-.664.324.313.635.6.932.9a.227.227,0,0,0,.294.064,6.553,6.553,0,0,1,.668-.215c.076-.022.115-.046.128-.134.068-.441.147-.88.227-1.349.4-.017.8-.036,1.189-.045.033,0,.087.055.1.094.119.389.235.779.343,1.171a.177.177,0,0,0,.164.15c.248.043.495.1.739.156a.152.152,0,0,0,.179-.061c.255-.311.516-.619.775-.927.028-.034.06-.064.108-.116.345.182.689.361,1.029.549a.161.161,0,0,1,.043.14c-.091.4-.186.792-.29,1.185a.164.164,0,0,0,.064.2c.194.161.383.329.564.5a.154.154,0,0,0,.194.038c.384-.146.773-.28,1.157-.424a.117.117,0,0,1,.165.054q.284.44.574.877a.11.11,0,0,1-.019.161c-.286.3-.568.6-.856.89a.155.155,0,0,0-.044.193,6.989,6.989,0,0,1,.226.693.2.2,0,0,0,.19.17c.385.059.767.132,1.151.194a.159.159,0,0,1,.153.173c.01.162.035.323.053.485Zm-6.918-4.264a4.007,4.007,0,0,0-4.03,3.969,4.012,4.012,0,0,0,3.958,4.042,4.014,4.014,0,0,0,4.063-3.964A4.01,4.01,0,0,0-1105.883,118.533Z" transform="translate(-445.002 -448.813)" fill="#252529"/>
    <path id="Path_1149" data-name="Path 1149" d="M-1560.187-324.234h-.13q-3.2,0-6.406,0a3.249,3.249,0,0,1-3.222-2.6,3.291,3.291,0,0,1-.07-.685q-.006-7.322,0-14.645a3.253,3.253,0,0,1,2.734-3.244,3.723,3.723,0,0,1,.635-.042c4.829,0,9.658.008,14.486-.007a3.313,3.313,0,0,1,3.209,2.264,3.362,3.362,0,0,1,.157,1.032q0,3.4,0,6.8v.117c-.215-.036-.417-.073-.621-.1-.293-.045-.586-.091-.88-.127-.11-.013-.132-.061-.132-.163q0-2.93,0-5.861a2.275,2.275,0,0,0-1.884-2.288,2.4,2.4,0,0,0-.449-.037q-6.645,0-13.29,0a2.284,2.284,0,0,0-2.336,2.324c0,1.1,0,2.206,0,3.309q0,4.984,0,9.967a2.266,2.266,0,0,0,1.588,2.239,2.736,2.736,0,0,0,.783.113c1.816.01,3.633.006,5.449,0,.117,0,.173.021.188.15C-1560.321-325.226-1560.252-324.736-1560.187-324.234Z" transform="translate(0)" fill="#252529"/>
    <path id="Path_1150" data-name="Path 1150" d="M-1439-204.914c-.567,0-1.134,0-1.7,0a1.231,1.231,0,0,1-1.3-1.311q0-1.695,0-3.389a1.237,1.237,0,0,1,1.315-1.314h3.389A1.233,1.233,0,0,1-1436-209.62q0,1.734,0,3.469a1.208,1.208,0,0,1-1.173,1.231c-.611.016-1.223,0-1.834,0Z" transform="translate(-124.608 -130.954)" fill="#252529"/>
    <path id="Path_1151" data-name="Path 1151" d="M-1439,102.982c-.563,0-1.125,0-1.688,0a1.233,1.233,0,0,1-1.318-1.322q0-1.688,0-3.376a1.235,1.235,0,0,1,1.312-1.316c1.152,0,2.3,0,3.456,0a1.225,1.225,0,0,1,1.228,1.039,1.514,1.514,0,0,1,.015.251q0,1.748,0,3.5a1.21,1.21,0,0,1-1.184,1.222c-.607.013-1.214,0-1.821,0Z" transform="translate(-124.609 -430.665)" fill="#252529"/>
    <path id="Path_1152" data-name="Path 1152" d="M-1119.142-204.915c-.58,0-1.161,0-1.741,0a1.221,1.221,0,0,1-1.241-1.037,1.5,1.5,0,0,1-.014-.252q0-1.714,0-3.429a1.229,1.229,0,0,1,1.3-1.3h3.4a1.234,1.234,0,0,1,1.3,1.3q0,1.708,0,3.415a1.231,1.231,0,0,1-1.3,1.3C-1118-204.914-1118.57-204.915-1119.142-204.915Z" transform="translate(-435.973 -130.953)" fill="#252529"/>
    <path id="Path_1153" data-name="Path 1153" d="M-911.4,314.4a1.716,1.716,0,0,1-1.714-1.731,1.716,1.716,0,0,1,1.733-1.711,1.715,1.715,0,0,1,1.707,1.723A1.716,1.716,0,0,1-911.4,314.4Z" transform="translate(-639.446 -638.973)" fill="#252529"/>
  </g>
</svg>
